<?xml version="1.0" encoding="utf-8"?>
<!-- Generator: Adobe Illustrator 14.0.0, SVG Export Plug-In . SVG Version: 6.00 Build 43363)  -->
<!DOCTYPE svg PUBLIC "-//W3C//DTD SVG 1.1//EN" "http://www.w3.org/Graphics/SVG/1.1/DTD/svg11.dtd">
<svg version="1.1" id="Ebene_1" xmlns="http://www.w3.org/2000/svg" xmlns:xlink="http://www.w3.org/1999/xlink" x="0px" y="0px"
	 width="131px" height="60px" viewBox="0 0 131 60" enable-background="new 0 0 131 60" xml:space="preserve">
<g display="none">
	<polyline display="inline" fill="#FF3F1F" points="0,19.674 130.461,19.674 130.461,19.083 0,19.083 	"/>
	<path display="inline" fill="#FF3F1F" d="M1.659,14.888H3.51V9.911c0-0.425,0.056-0.837,0.17-1.234
		C3.794,8.28,3.962,7.93,4.19,7.625c0.227-0.305,0.511-0.55,0.851-0.734c0.34-0.185,0.745-0.277,1.212-0.277
		c0.454,0,0.837,0.082,1.148,0.245c0.312,0.163,0.563,0.383,0.755,0.66c0.192,0.276,0.33,0.609,0.415,1
		c0.085,0.39,0.127,0.805,0.127,1.244v5.125h1.85v-5.7c0-0.681-0.056-1.248-0.17-1.701c-0.114-0.453-0.305-0.865-0.574-1.234
		C9.521,5.842,9.138,5.527,8.656,5.306c-0.482-0.22-1.063-0.329-1.744-0.329c-0.822,0-1.524,0.177-2.105,0.531
		C4.225,5.862,3.793,6.338,3.51,6.933V0H1.659V14.888L1.659,14.888z M21.906,5.232h-2.339l-4.041,4.403V0h-1.85v14.888h1.85v-4.381
		l4.041,4.381h2.339l-4.402-4.828L21.906,5.232L21.906,5.232z"/>
	<path display="inline" fill="#FF3F1F" d="M28.563,14.888h1.852V5.232h-1.852V14.888L28.563,14.888z M28.436,2.616
		c0.283,0.284,0.631,0.425,1.041,0.425c0.412,0,0.767-0.141,1.064-0.425c0.298-0.283,0.447-0.63,0.447-1.042
		c0-0.411-0.149-0.766-0.447-1.063c-0.298-0.298-0.652-0.447-1.064-0.447c-0.41,0-0.758,0.149-1.041,0.447
		c-0.284,0.297-0.426,0.652-0.426,1.063C28.01,1.985,28.152,2.333,28.436,2.616L28.436,2.616z M48.087,14.888V8.784
		c0-0.524-0.06-1.021-0.18-1.489c-0.12-0.468-0.316-0.872-0.584-1.212c-0.271-0.34-0.625-0.61-1.063-0.809
		c-0.441-0.198-0.979-0.297-1.618-0.297c-0.383,0-0.741,0.056-1.073,0.17s-0.633,0.263-0.894,0.447
		c-0.263,0.185-0.493,0.404-0.692,0.659c-0.198,0.255-0.346,0.518-0.445,0.787c-0.185-0.625-0.525-1.124-1.022-1.5
		c-0.496-0.375-1.19-0.563-2.083-0.563c-0.723,0-1.332,0.195-1.828,0.585c-0.499,0.39-0.838,0.854-1.022,1.393V5.232h-1.851v9.656
		h1.851V9.975c0-1.134,0.219-1.979,0.66-2.531c0.438-0.553,1.013-0.83,1.722-0.83c0.653,0,1.153,0.227,1.5,0.681
		c0.349,0.454,0.521,1.169,0.521,2.148v5.445h1.851V9.975c0-1.134,0.213-1.979,0.637-2.531c0.428-0.553,1-0.83,1.725-0.83
		c0.667,0,1.172,0.231,1.521,0.691c0.347,0.461,0.521,1.138,0.521,2.031v5.551L48.087,14.888L48.087,14.888z M65.613,14.888V8.784
		c0-0.524-0.06-1.021-0.18-1.489c-0.12-0.468-0.316-0.872-0.584-1.212c-0.27-0.34-0.625-0.61-1.063-0.809
		c-0.441-0.198-0.979-0.297-1.618-0.297c-0.383,0-0.74,0.056-1.073,0.17c-0.334,0.114-0.632,0.263-0.893,0.447
		c-0.264,0.185-0.494,0.404-0.692,0.659c-0.199,0.255-0.347,0.518-0.445,0.787c-0.185-0.625-0.526-1.124-1.022-1.5
		s-1.191-0.563-2.084-0.563c-0.723,0-1.332,0.195-1.828,0.585s-0.838,0.854-1.022,1.393V5.232h-1.851v9.656h1.851V9.975
		c0-1.134,0.222-1.979,0.66-2.531c0.438-0.552,1.014-0.83,1.722-0.83c0.653,0,1.151,0.227,1.5,0.681
		c0.349,0.454,0.521,1.169,0.521,2.148v5.445h1.851V9.975c0-1.134,0.213-1.979,0.638-2.531c0.427-0.553,0.999-0.83,1.724-0.83
		c0.667,0,1.173,0.231,1.521,0.691c0.347,0.461,0.52,1.138,0.52,2.031v5.551L65.613,14.888L65.613,14.888z M75.162,14.718
		c0.623-0.269,1.162-0.638,1.607-1.105c0.445-0.468,0.789-1.007,1.029-1.617c0.24-0.609,0.363-1.255,0.363-1.936
		c0-0.68-0.123-1.329-0.363-1.946c-0.24-0.617-0.584-1.159-1.029-1.627c-0.445-0.468-0.984-0.837-1.607-1.106
		c-0.625-0.269-1.326-0.404-2.104-0.404c-0.768,0-1.461,0.135-2.084,0.404c-0.625,0.269-1.158,0.638-1.598,1.106
		c-0.438,0.468-0.779,1.01-1.021,1.627c-0.242,0.617-0.362,1.266-0.362,1.946c0,0.681,0.12,1.327,0.362,1.936
		c0.24,0.61,0.582,1.148,1.021,1.617c0.438,0.467,0.973,0.836,1.598,1.105c0.623,0.269,1.316,0.404,2.084,0.404
		C73.836,15.122,74.537,14.987,75.162,14.718L75.162,14.718z M71.717,13.187c-0.396-0.184-0.732-0.429-1.008-0.734
		c-0.277-0.305-0.496-0.663-0.65-1.074c-0.158-0.412-0.232-0.851-0.232-1.319c0-0.468,0.074-0.907,0.232-1.318
		c0.154-0.412,0.373-0.773,0.65-1.085c0.275-0.312,0.611-0.56,1.008-0.745c0.398-0.184,0.844-0.276,1.342-0.276
		c0.494,0,0.945,0.092,1.352,0.276c0.402,0.185,0.748,0.433,1.029,0.745c0.281,0.312,0.504,0.673,0.66,1.085
		c0.154,0.411,0.234,0.85,0.234,1.318c0,0.468-0.08,0.908-0.234,1.319c-0.156,0.411-0.379,0.769-0.66,1.074
		c-0.281,0.305-0.627,0.55-1.029,0.734c-0.404,0.185-0.854,0.276-1.352,0.276S72.115,13.371,71.717,13.187L71.717,13.187z
		 M82.543,13.208c0.312,0.596,0.773,1.063,1.383,1.404c0.61,0.341,1.27,0.511,1.979,0.511c0.736,0,1.414-0.135,2.029-0.404
		c0.617-0.269,1.145-0.638,1.574-1.104c0.432-0.468,0.77-1.007,1.012-1.617c0.24-0.609,0.359-1.255,0.359-1.936
		c0-0.68-0.119-1.329-0.359-1.946c-0.242-0.617-0.58-1.159-1.012-1.627c-0.432-0.468-0.957-0.837-1.574-1.106
		c-0.615-0.269-1.293-0.404-2.029-0.404c-0.709,0-1.367,0.17-1.979,0.51c-0.609,0.34-1.07,0.808-1.383,1.404V0h-1.85v14.888h1.85
		V13.208L82.543,13.208z M84.469,13.187c-0.404-0.184-0.748-0.429-1.031-0.734c-0.285-0.305-0.504-0.663-0.66-1.074
		c-0.156-0.412-0.232-0.851-0.232-1.319c0-0.468,0.076-0.907,0.232-1.318c0.156-0.412,0.375-0.773,0.66-1.085
		c0.283-0.312,0.627-0.56,1.031-0.745c0.402-0.184,0.854-0.276,1.35-0.276c0.482,0,0.92,0.092,1.318,0.276
		c0.396,0.185,0.732,0.433,1.01,0.745c0.278,0.312,0.494,0.673,0.648,1.085c0.158,0.411,0.236,0.85,0.236,1.318
		c0,0.468-0.078,0.908-0.236,1.319c-0.154,0.411-0.371,0.769-0.648,1.074c-0.275,0.305-0.611,0.55-1.01,0.734
		c-0.398,0.185-0.836,0.276-1.318,0.276C85.322,13.463,84.871,13.371,84.469,13.187L84.469,13.187z M93.432,14.888h1.854V5.232
		h-1.854V14.888L93.432,14.888z M93.305,2.616c0.283,0.284,0.631,0.425,1.043,0.425c0.41,0,0.764-0.141,1.062-0.425
		c0.297-0.283,0.447-0.63,0.447-1.042c0-0.411-0.15-0.766-0.447-1.063c-0.299-0.298-0.652-0.447-1.062-0.447
		c-0.412,0-0.76,0.149-1.043,0.447c-0.283,0.297-0.424,0.652-0.424,1.063C92.881,1.985,93.021,2.333,93.305,2.616L93.305,2.616z
		 M98.602,14.888h1.854V0h-1.854V14.888L98.602,14.888z M103.768,14.888h1.854V5.232h-1.854V14.888L103.768,14.888z M103.641,2.616
		c0.285,0.284,0.631,0.425,1.045,0.425c0.41,0,0.766-0.141,1.062-0.425c0.299-0.283,0.445-0.63,0.445-1.042
		c0-0.411-0.146-0.766-0.445-1.063c-0.297-0.298-0.648-0.447-1.062-0.447s-0.76,0.149-1.045,0.447
		c-0.283,0.297-0.424,0.652-0.424,1.063C103.217,1.985,103.357,2.333,103.641,2.616L103.641,2.616z M114.859,7.135
		c0.52,0.489,0.777,1.16,0.777,2.01h-5.596c0.025-0.879,0.307-1.556,0.828-2.031c0.525-0.475,1.207-0.712,2.043-0.712
		C113.695,6.402,114.344,6.646,114.859,7.135L114.859,7.135z M117.338,10.549c0.045-0.269,0.068-0.503,0.074-0.701
		c0.008-0.199,0.012-0.369,0.012-0.511c0-0.609-0.113-1.181-0.342-1.712c-0.227-0.531-0.543-0.996-0.945-1.393
		c-0.404-0.397-0.879-0.705-1.424-0.926c-0.547-0.22-1.131-0.329-1.754-0.329c-0.768,0-1.445,0.127-2.033,0.382
		c-0.59,0.255-1.086,0.61-1.49,1.064c-0.4,0.454-0.709,0.992-0.924,1.616c-0.213,0.624-0.318,1.297-0.318,2.02
		c0,0.695,0.1,1.351,0.299,1.968c0.197,0.617,0.494,1.152,0.893,1.605c0.398,0.454,0.9,0.816,1.514,1.085
		c0.607,0.269,1.316,0.404,2.127,0.404c0.605,0,1.162-0.085,1.658-0.256c0.494-0.169,0.93-0.396,1.297-0.68
		c0.369-0.283,0.668-0.609,0.893-0.979c0.229-0.369,0.385-0.758,0.469-1.169h-1.871c-0.156,0.412-0.422,0.769-0.799,1.074
		c-0.373,0.305-0.922,0.458-1.646,0.458c-0.539,0-0.994-0.081-1.361-0.245c-0.365-0.163-0.668-0.383-0.902-0.659
		c-0.232-0.276-0.408-0.596-0.531-0.958c-0.119-0.361-0.188-0.748-0.199-1.159L117.338,10.549L117.338,10.549z M120.104,14.888
		h1.854V9.911c0-0.425,0.059-0.837,0.17-1.234c0.111-0.397,0.283-0.748,0.51-1.053c0.229-0.305,0.512-0.549,0.854-0.733
		c0.34-0.185,0.744-0.277,1.211-0.277c0.453,0,0.836,0.082,1.148,0.245c0.312,0.163,0.562,0.383,0.756,0.66
		c0.19,0.277,0.328,0.609,0.414,1s0.129,0.805,0.129,1.244v5.125h1.848v-5.7c0-0.681-0.055-1.248-0.168-1.701
		c-0.113-0.453-0.305-0.865-0.574-1.234c-0.283-0.411-0.668-0.726-1.148-0.947c-0.48-0.22-1.062-0.329-1.744-0.329
		c-0.82,0-1.523,0.177-2.104,0.531c-0.582,0.354-1.014,0.83-1.297,1.425V5.232h-1.854v9.656H120.104z"/>
	<polyline display="inline" fill="#7F112C" points="0,45.171 111.213,45.171 111.213,44.58 0,44.58 	"/>
	<path display="inline" fill="#7F112C" d="M16.015,40.386v-6.104c0-0.524-0.061-1.021-0.181-1.488
		c-0.121-0.469-0.315-0.872-0.585-1.213c-0.27-0.34-0.624-0.608-1.063-0.808c-0.439-0.2-0.979-0.298-1.617-0.298
		c-0.382,0-0.741,0.057-1.073,0.169c-0.333,0.113-0.631,0.264-0.894,0.445c-0.262,0.186-0.493,0.404-0.691,0.659
		c-0.199,0.256-0.348,0.519-0.447,0.787c-0.185-0.623-0.524-1.123-1.021-1.499c-0.497-0.375-1.191-0.563-2.084-0.563
		c-0.723,0-1.333,0.195-1.829,0.583c-0.497,0.394-0.837,0.855-1.021,1.396V30.73h-1.85v9.654H3.51v-4.912
		c0-1.136,0.22-1.979,0.659-2.529c0.439-0.555,1.014-0.83,1.723-0.83c0.652,0,1.152,0.228,1.5,0.681s0.521,1.169,0.521,2.147v5.443
		h1.851v-4.912c0-1.136,0.213-1.979,0.638-2.529c0.425-0.555,1-0.83,1.723-0.83c0.667,0,1.173,0.229,1.521,0.691
		c0.347,0.459,0.521,1.137,0.521,2.028v5.552L16.015,40.386L16.015,40.386z M26.735,30.729v1.658
		c-0.312-0.595-0.776-1.062-1.394-1.402c-0.616-0.34-1.279-0.509-1.988-0.509c-0.737,0-1.411,0.134-2.021,0.404
		s-1.131,0.639-1.563,1.104c-0.432,0.471-0.77,1.013-1.01,1.627c-0.241,0.617-0.361,1.268-0.361,1.947s0.12,1.325,0.361,1.937
		c0.241,0.608,0.578,1.146,1.01,1.614c0.433,0.47,0.954,0.838,1.563,1.105c0.609,0.271,1.283,0.405,2.021,0.405
		c0.709,0,1.372-0.171,1.988-0.513c0.617-0.34,1.082-0.809,1.394-1.401v1.68h1.829v-9.655H26.735L26.735,30.729z M22.119,38.684
		c-0.397-0.184-0.734-0.428-1.01-0.731s-0.493-0.663-0.649-1.073c-0.156-0.412-0.233-0.854-0.233-1.318
		c0-0.47,0.078-0.906,0.233-1.317c0.156-0.411,0.373-0.772,0.649-1.085s0.613-0.561,1.01-0.744s0.844-0.277,1.34-0.277
		s0.947,0.094,1.351,0.277s0.747,0.434,1.031,0.744c0.284,0.311,0.503,0.674,0.659,1.085s0.234,0.85,0.234,1.317
		c0,0.469-0.078,0.906-0.234,1.318c-0.156,0.41-0.375,0.77-0.659,1.073c-0.284,0.306-0.627,0.55-1.031,0.731
		c-0.404,0.187-0.855,0.277-1.351,0.277S22.516,38.868,22.119,38.684L22.119,38.684z M31.882,40.386h1.851v-4.977
		c0-0.427,0.056-0.837,0.169-1.233c0.112-0.396,0.283-0.748,0.51-1.054c0.229-0.306,0.512-0.55,0.852-0.733
		c0.342-0.185,0.745-0.275,1.211-0.275c0.455,0,0.838,0.082,1.149,0.244c0.312,0.162,0.563,0.385,0.755,0.658
		c0.191,0.277,0.33,0.61,0.416,1c0.085,0.393,0.127,0.805,0.127,1.244v5.126h1.851v-5.7c0-0.681-0.058-1.246-0.171-1.701
		c-0.113-0.452-0.305-0.863-0.575-1.232c-0.283-0.411-0.664-0.727-1.146-0.945c-0.482-0.221-1.063-0.33-1.745-0.33
		c-0.821,0-1.522,0.175-2.104,0.531c-0.581,0.354-1.016,0.829-1.297,1.426V30.73h-1.851v9.654L31.882,40.386L31.882,40.386z
		 M50.747,30.729v4.955c0,0.439-0.056,0.858-0.169,1.256c-0.115,0.396-0.284,0.748-0.513,1.054c-0.226,0.307-0.512,0.546-0.86,0.724
		c-0.346,0.18-0.755,0.268-1.224,0.268c-0.452,0-0.833-0.082-1.138-0.244c-0.305-0.163-0.551-0.383-0.743-0.659
		c-0.191-0.276-0.329-0.606-0.415-0.989c-0.085-0.383-0.127-0.801-0.127-1.255V30.73h-1.851v5.701c0,0.68,0.053,1.248,0.159,1.699
		c0.106,0.455,0.293,0.865,0.562,1.233c0.284,0.396,0.67,0.704,1.159,0.926c0.489,0.219,1.075,0.33,1.756,0.33
		c0.808,0,1.507-0.179,2.096-0.532c0.586-0.354,1.022-0.829,1.307-1.425v1.723h1.851V30.73h-1.85V30.729z M61.404,25.625
		c-0.144-0.071-0.323-0.131-0.542-0.181c-0.222-0.05-0.48-0.074-0.778-0.074c-0.284,0-0.616,0.028-0.999,0.085
		S58.339,25.661,58,25.901c-0.342,0.241-0.628,0.606-0.86,1.096c-0.235,0.489-0.351,1.174-0.351,2.052v1.682h-2.087v1.554h2.087
		v8.104h1.848v-8.104h2.768V30.73h-2.768v-1.874c0-0.438,0.051-0.779,0.15-1.021c0.097-0.241,0.23-0.422,0.393-0.542
		c0.164-0.121,0.344-0.195,0.542-0.224c0.198-0.029,0.397-0.043,0.596-0.043c0.215,0,0.406,0.015,0.574,0.043
		c0.171,0.028,0.342,0.071,0.513,0.128L61.404,25.625L61.404,25.625z M70.57,30.729v1.658c-0.314-0.595-0.777-1.062-1.396-1.402
		c-0.613-0.34-1.277-0.509-1.986-0.509c-0.736,0-1.415,0.134-2.021,0.404c-0.609,0.27-1.131,0.639-1.564,1.104
		c-0.434,0.471-0.769,1.013-1.009,1.627c-0.242,0.617-0.362,1.268-0.362,1.947s0.12,1.325,0.362,1.937
		c0.24,0.608,0.575,1.146,1.009,1.614c0.434,0.47,0.955,0.838,1.564,1.105c0.607,0.271,1.284,0.405,2.021,0.405
		c0.709,0,1.373-0.171,1.986-0.513c0.617-0.34,1.08-0.809,1.396-1.401v1.68h1.828v-9.655H70.57L70.57,30.729z M65.955,38.684
		c-0.396-0.184-0.733-0.428-1.011-0.731c-0.276-0.306-0.494-0.663-0.648-1.073c-0.157-0.412-0.233-0.854-0.233-1.318
		c0-0.47,0.076-0.906,0.233-1.317c0.154-0.411,0.372-0.772,0.648-1.085c0.277-0.312,0.614-0.561,1.011-0.744
		c0.395-0.186,0.842-0.277,1.338-0.277s0.947,0.094,1.354,0.277c0.402,0.186,0.744,0.434,1.031,0.744
		c0.281,0.312,0.5,0.674,0.658,1.085c0.156,0.411,0.234,0.85,0.234,1.317c0,0.469-0.078,0.906-0.234,1.318
		c-0.158,0.41-0.377,0.77-0.658,1.073c-0.287,0.306-0.629,0.55-1.031,0.731c-0.404,0.187-0.855,0.277-1.354,0.277
		S66.35,38.868,65.955,38.684L65.955,38.684z M83.947,30.729h-2.342l-4.039,4.402v-9.635h-1.854v14.889h1.854v-4.382l4.039,4.382
		h2.342l-4.404-4.828L83.947,30.729L83.947,30.729z M91.115,38.748c-0.145,0.042-0.338,0.062-0.586,0.062s-0.471,0-0.67,0
		c-0.24,0-0.457-0.021-0.648-0.062s-0.357-0.139-0.502-0.286c-0.141-0.147-0.25-0.358-0.328-0.636
		c-0.076-0.275-0.117-0.646-0.117-1.113v-4.431h2.51v-1.554h-2.51v-3.253h-1.85v3.253h-1.787v1.554h1.787v4.85
		c0,0.794,0.104,1.418,0.309,1.871c0.205,0.454,0.459,0.791,0.764,1.011c0.309,0.221,0.637,0.358,0.99,0.416
		c0.355,0.057,0.684,0.084,0.979,0.084c0.312,0,0.621-0.015,0.926-0.043c0.306-0.027,0.55-0.058,0.734-0.085L91.115,38.748
		L91.115,38.748z M99.939,30.729v4.955c0,0.439-0.057,0.858-0.168,1.256c-0.113,0.396-0.283,0.748-0.514,1.054
		c-0.227,0.307-0.514,0.546-0.859,0.724c-0.348,0.18-0.756,0.268-1.225,0.268c-0.451,0-0.834-0.082-1.139-0.244
		c-0.307-0.163-0.553-0.383-0.742-0.659s-0.33-0.606-0.416-0.989s-0.127-0.801-0.127-1.255V30.73H92.9v5.701
		c0,0.68,0.053,1.248,0.16,1.699c0.104,0.455,0.295,0.865,0.562,1.233c0.282,0.396,0.672,0.704,1.16,0.926
		c0.487,0.219,1.073,0.33,1.754,0.33c0.81,0,1.508-0.179,2.096-0.532c0.591-0.354,1.025-0.829,1.308-1.425v1.723h1.853V30.73h-1.853
		V30.729L99.939,30.729z M111.086,30.729c-0.242-0.099-0.547-0.146-0.916-0.146c-0.68,0-1.322,0.188-1.924,0.562
		c-0.604,0.375-1.031,0.867-1.285,1.479v-1.895h-1.852v9.656h1.852v-4.232c0-1.161,0.266-2.09,0.795-2.785
		c0.533-0.694,1.336-1.042,2.414-1.042c0.172,0,0.316,0.007,0.438,0.021c0.119,0.014,0.281,0.041,0.479,0.084L111.086,30.729
		L111.086,30.729z"/>
	<path display="inline" fill="#7F112C" d="M0.737,53.279v6.617h2.042c0.548,0,1.035-0.097,1.46-0.285
		c0.425-0.188,0.785-0.438,1.078-0.746c0.293-0.309,0.515-0.661,0.666-1.059c0.151-0.398,0.227-0.806,0.227-1.221
		c0-0.417-0.076-0.82-0.227-1.22c-0.151-0.396-0.373-0.75-0.666-1.062c-0.293-0.308-0.653-0.557-1.078-0.746
		c-0.425-0.188-0.912-0.283-1.46-0.283H0.737V53.279z M2.779,54.055c0.403,0,0.764,0.072,1.082,0.219
		c0.318,0.145,0.584,0.334,0.799,0.569c0.214,0.237,0.378,0.507,0.492,0.81c0.113,0.304,0.17,0.613,0.17,0.938
		c0,0.32-0.057,0.635-0.17,0.938c-0.114,0.303-0.278,0.57-0.492,0.808c-0.214,0.237-0.48,0.429-0.799,0.571
		c-0.319,0.145-0.679,0.219-1.082,0.219H1.598v-5.066h1.181V54.055z M7.326,59.896h0.823v-4.293H7.326V59.896L7.326,59.896z
		 M7.269,54.441c0.126,0.125,0.28,0.188,0.463,0.188c0.182,0,0.34-0.062,0.473-0.188c0.132-0.127,0.198-0.28,0.198-0.463
		c0-0.185-0.066-0.34-0.198-0.475c-0.132-0.133-0.291-0.197-0.473-0.197c-0.183,0-0.337,0.064-0.463,0.197
		c-0.126,0.135-0.189,0.29-0.189,0.475C7.08,54.161,7.143,54.314,7.269,54.441L7.269,54.441z M12.255,56.45
		c0.23,0.218,0.345,0.515,0.345,0.894h-2.486c0.013-0.39,0.135-0.691,0.369-0.902c0.233-0.211,0.536-0.315,0.907-0.315
		C11.737,56.124,12.025,56.232,12.255,56.45L12.255,56.45z M13.356,57.968c0.019-0.12,0.03-0.224,0.033-0.312l0.005-0.227
		c0-0.271-0.051-0.525-0.151-0.763c-0.101-0.235-0.241-0.44-0.421-0.619c-0.179-0.177-0.391-0.312-0.633-0.412
		c-0.243-0.097-0.503-0.146-0.78-0.146c-0.34,0-0.641,0.058-0.903,0.171c-0.261,0.112-0.482,0.271-0.662,0.474
		c-0.18,0.2-0.316,0.44-0.411,0.719c-0.094,0.275-0.142,0.576-0.142,0.896c0,0.311,0.044,0.602,0.132,0.875s0.221,0.514,0.397,0.714
		c0.177,0.201,0.4,0.362,0.672,0.479C10.763,59.939,11.078,60,11.437,60c0.271,0,0.517-0.038,0.737-0.111
		c0.221-0.076,0.413-0.179,0.577-0.304c0.164-0.127,0.296-0.271,0.397-0.437c0.1-0.164,0.17-0.338,0.208-0.521h-0.832
		c-0.069,0.185-0.188,0.345-0.354,0.479c-0.167,0.136-0.412,0.203-0.733,0.203c-0.239,0-0.441-0.035-0.604-0.108
		c-0.164-0.072-0.298-0.171-0.402-0.293c-0.104-0.123-0.183-0.267-0.236-0.427c-0.054-0.159-0.083-0.332-0.09-0.516L13.356,57.968
		L13.356,57.968z M20.919,59.896h0.86v-6.617h-0.86v2.938h-3.082v-2.938h-0.86v6.617h0.86v-2.902h3.082V59.896L20.919,59.896z
		 M26.609,55.604v0.737c-0.138-0.265-0.345-0.473-0.619-0.624c-0.273-0.15-0.568-0.228-0.884-0.228
		c-0.327,0-0.627,0.061-0.898,0.181s-0.502,0.283-0.695,0.491c-0.192,0.208-0.341,0.448-0.449,0.724
		c-0.107,0.273-0.161,0.562-0.161,0.864c0,0.304,0.053,0.59,0.161,0.86c0.107,0.271,0.257,0.511,0.449,0.718
		c0.192,0.209,0.424,0.373,0.695,0.491c0.271,0.121,0.571,0.181,0.898,0.181c0.315,0,0.61-0.075,0.884-0.228
		c0.274-0.151,0.481-0.358,0.619-0.623v0.746h0.813v-4.291H26.609L26.609,55.604z M24.558,59.141
		c-0.176-0.082-0.327-0.189-0.449-0.326c-0.123-0.135-0.219-0.295-0.288-0.479c-0.07-0.184-0.104-0.377-0.104-0.586
		c0-0.208,0.034-0.402,0.104-0.586c0.069-0.184,0.165-0.344,0.288-0.48c0.123-0.14,0.273-0.25,0.449-0.332
		c0.176-0.082,0.374-0.123,0.596-0.123c0.22,0,0.42,0.041,0.6,0.123c0.181,0.082,0.332,0.192,0.459,0.332
		c0.126,0.14,0.224,0.299,0.293,0.48c0.069,0.182,0.104,0.378,0.104,0.586c0,0.209-0.034,0.402-0.104,0.586
		c-0.069,0.184-0.167,0.344-0.293,0.479c-0.127,0.137-0.278,0.244-0.459,0.326c-0.18,0.082-0.38,0.123-0.6,0.123
		C24.932,59.264,24.734,59.223,24.558,59.141L24.558,59.141z M31.94,55.604v2.203c0,0.195-0.025,0.381-0.074,0.56
		c-0.051,0.176-0.127,0.332-0.229,0.467c-0.099,0.138-0.229,0.244-0.383,0.321c-0.154,0.078-0.335,0.117-0.542,0.117
		c-0.202,0-0.371-0.035-0.506-0.107c-0.136-0.072-0.247-0.169-0.331-0.293c-0.086-0.122-0.146-0.27-0.185-0.438
		c-0.038-0.172-0.057-0.355-0.057-0.56v-2.271H28.81v2.533c0,0.303,0.024,0.555,0.071,0.758c0.048,0.201,0.131,0.383,0.251,0.547
		c0.126,0.179,0.298,0.314,0.515,0.412C29.865,59.951,30.125,60,30.428,60c0.36,0,0.669-0.078,0.93-0.236
		c0.264-0.156,0.457-0.367,0.582-0.634v0.767h0.823v-4.291H31.94V55.604z M35.524,57.339c-0.152-0.047-0.281-0.096-0.388-0.146
		c-0.108-0.051-0.189-0.11-0.242-0.18c-0.054-0.07-0.081-0.158-0.081-0.267c0-0.192,0.076-0.345,0.229-0.442
		c0.15-0.102,0.339-0.15,0.567-0.15c0.282,0,0.499,0.066,0.646,0.201c0.147,0.137,0.222,0.33,0.222,0.582h0.794
		c0-0.215-0.042-0.408-0.127-0.586c-0.086-0.178-0.201-0.328-0.349-0.457c-0.15-0.131-0.323-0.229-0.526-0.299
		c-0.2-0.068-0.418-0.104-0.65-0.104c-0.222,0-0.43,0.028-0.626,0.081c-0.193,0.055-0.364,0.133-0.51,0.236
		c-0.146,0.103-0.259,0.231-0.339,0.387c-0.083,0.156-0.125,0.334-0.125,0.535c0,0.193,0.03,0.354,0.09,0.479
		c0.061,0.127,0.144,0.233,0.247,0.322c0.103,0.088,0.227,0.159,0.369,0.217c0.141,0.06,0.293,0.108,0.457,0.161
		c0.215,0.074,0.406,0.137,0.577,0.186c0.171,0.047,0.313,0.1,0.429,0.155c0.118,0.058,0.208,0.121,0.271,0.19
		c0.062,0.074,0.095,0.172,0.095,0.289c0,0.215-0.076,0.371-0.23,0.47c-0.155,0.099-0.365,0.146-0.631,0.146
		c-0.288,0-0.53-0.068-0.722-0.203c-0.192-0.137-0.289-0.367-0.289-0.693h-0.803c0,0.259,0.049,0.482,0.146,0.68
		c0.099,0.196,0.229,0.355,0.388,0.487c0.161,0.129,0.349,0.226,0.562,0.286C35.189,59.969,35.416,60,35.656,60
		c0.239,0,0.461-0.025,0.667-0.081c0.202-0.053,0.383-0.134,0.532-0.239c0.152-0.105,0.271-0.24,0.355-0.402
		c0.086-0.159,0.127-0.348,0.127-0.562c0-0.2-0.036-0.368-0.108-0.501c-0.071-0.133-0.168-0.24-0.288-0.331
		c-0.12-0.088-0.256-0.159-0.411-0.217c-0.154-0.06-0.313-0.11-0.478-0.162C35.851,57.441,35.673,57.387,35.524,57.339
		L35.524,57.339z M44.891,59.896v-2.713c0-0.233-0.027-0.455-0.081-0.664c-0.053-0.207-0.141-0.387-0.261-0.537
		c-0.117-0.151-0.276-0.271-0.471-0.359c-0.196-0.088-0.436-0.133-0.72-0.133c-0.169,0-0.33,0.025-0.478,0.076
		s-0.279,0.117-0.397,0.199c-0.115,0.08-0.219,0.18-0.307,0.293c-0.088,0.11-0.154,0.229-0.198,0.35
		c-0.081-0.277-0.233-0.5-0.452-0.666c-0.222-0.167-0.531-0.252-0.928-0.252c-0.321,0-0.591,0.088-0.812,0.261
		c-0.222,0.174-0.372,0.38-0.455,0.619v-0.767H38.51v4.293h0.821v-2.186c0-0.504,0.1-0.879,0.293-1.125
		c0.196-0.246,0.452-0.369,0.767-0.369c0.291,0,0.513,0.104,0.667,0.303c0.154,0.203,0.23,0.521,0.23,0.957v2.42h0.824v-2.186
		c0-0.504,0.095-0.879,0.281-1.125c0.189-0.246,0.445-0.369,0.767-0.369c0.298,0,0.521,0.104,0.676,0.309
		c0.154,0.205,0.23,0.507,0.23,0.901v2.47H44.891L44.891,59.896z M49.655,55.604v0.737c-0.139-0.265-0.344-0.473-0.619-0.624
		c-0.274-0.15-0.569-0.228-0.884-0.228c-0.327,0-0.627,0.061-0.897,0.181c-0.272,0.12-0.503,0.283-0.694,0.491
		c-0.194,0.208-0.344,0.448-0.45,0.724c-0.106,0.273-0.159,0.562-0.159,0.864c0,0.304,0.053,0.59,0.159,0.86
		c0.106,0.27,0.256,0.511,0.45,0.718c0.191,0.209,0.422,0.373,0.694,0.491c0.271,0.121,0.57,0.181,0.897,0.181
		c0.314,0,0.609-0.075,0.884-0.228c0.275-0.151,0.48-0.358,0.619-0.623v0.746h0.812v-4.291H49.655L49.655,55.604z M47.603,59.141
		c-0.176-0.082-0.325-0.189-0.448-0.326c-0.122-0.135-0.219-0.295-0.288-0.479c-0.069-0.184-0.104-0.377-0.104-0.586
		c0-0.208,0.034-0.402,0.104-0.586c0.07-0.184,0.166-0.344,0.288-0.48c0.123-0.14,0.272-0.25,0.448-0.332
		c0.178-0.082,0.376-0.123,0.596-0.123c0.221,0,0.422,0.041,0.602,0.123c0.178,0.082,0.33,0.192,0.457,0.332
		c0.125,0.14,0.225,0.299,0.293,0.48c0.069,0.184,0.104,0.378,0.104,0.586c0,0.209-0.035,0.402-0.104,0.586
		c-0.068,0.184-0.168,0.344-0.293,0.479c-0.127,0.137-0.279,0.244-0.457,0.326c-0.18,0.082-0.381,0.123-0.602,0.123
		C47.979,59.264,47.781,59.223,47.603,59.141L47.603,59.141z M54.598,55.604c-0.106-0.043-0.242-0.064-0.406-0.064
		c-0.303,0-0.589,0.084-0.854,0.251c-0.27,0.166-0.459,0.386-0.572,0.655v-0.842h-0.823v4.293h0.823v-1.881
		c0-0.519,0.118-0.932,0.354-1.238c0.237-0.311,0.593-0.465,1.073-0.465l0.193,0.011l0.213,0.036L54.598,55.604L54.598,55.604z
		 M59.052,55.604h-1.041l-1.796,1.957v-4.281h-0.823v6.617h0.823v-1.947l1.796,1.947h1.041l-1.957-2.146L59.052,55.604
		L59.052,55.604z M62.29,56.45c0.229,0.218,0.345,0.515,0.345,0.894h-2.486c0.012-0.39,0.134-0.691,0.369-0.902
		c0.231-0.211,0.533-0.315,0.907-0.315C61.771,56.124,62.059,56.232,62.29,56.45L62.29,56.45z M63.391,57.968
		c0.019-0.12,0.027-0.224,0.032-0.312l0.004-0.227c0-0.271-0.051-0.525-0.149-0.763c-0.102-0.235-0.242-0.44-0.423-0.619
		c-0.18-0.177-0.39-0.312-0.632-0.412c-0.245-0.097-0.503-0.146-0.78-0.146c-0.342,0-0.642,0.058-0.902,0.171
		c-0.263,0.112-0.482,0.271-0.662,0.474c-0.18,0.2-0.316,0.44-0.411,0.719c-0.095,0.275-0.143,0.576-0.143,0.896
		c0,0.311,0.044,0.602,0.134,0.875c0.088,0.273,0.219,0.514,0.396,0.714c0.176,0.201,0.399,0.362,0.672,0.479
		C60.797,59.939,61.113,60,61.47,60c0.271,0,0.518-0.038,0.739-0.111c0.219-0.076,0.41-0.179,0.576-0.304
		c0.162-0.127,0.296-0.271,0.397-0.437c0.1-0.164,0.168-0.338,0.208-0.521h-0.833c-0.069,0.185-0.188,0.345-0.354,0.479
		c-0.169,0.136-0.413,0.203-0.734,0.203c-0.239,0-0.44-0.035-0.604-0.108c-0.163-0.072-0.298-0.171-0.401-0.293
		c-0.104-0.123-0.183-0.267-0.235-0.427c-0.056-0.159-0.085-0.332-0.09-0.516L63.391,57.968L63.391,57.968z M64.609,59.754
		c0.125,0.126,0.279,0.189,0.464,0.189c0.183,0,0.34-0.063,0.474-0.189c0.132-0.125,0.198-0.279,0.198-0.463
		c0-0.188-0.066-0.348-0.198-0.479c-0.134-0.129-0.291-0.192-0.474-0.192c-0.185,0-0.339,0.063-0.464,0.192
		c-0.127,0.131-0.188,0.289-0.188,0.479C64.42,59.475,64.482,59.629,64.609,59.754L64.609,59.754z"/>
</g>
<g display="none">
	<polyline display="inline" fill="#2CB3E3" points="0,19.614 43.552,19.614 43.552,19.025 0,19.025 	"/>
	<path display="inline" fill="#2CB3E3" d="M1.654,14.842h1.845V9.88c0-0.424,0.056-0.834,0.169-1.229
		c0.113-0.396,0.283-0.746,0.509-1.05C4.403,7.297,4.686,7.054,5.025,6.87c0.339-0.184,0.742-0.276,1.208-0.276
		c0.453,0,0.834,0.082,1.145,0.244S7.941,7.22,8.132,7.495c0.19,0.275,0.329,0.608,0.413,0.997c0.085,0.389,0.128,0.802,0.128,1.24
		v5.11h1.844V9.16c0-0.679-0.057-1.244-0.169-1.696c-0.113-0.452-0.304-0.862-0.572-1.229C9.492,5.824,9.11,5.51,8.63,5.29
		C8.15,5.071,7.57,4.961,6.891,4.961c-0.819,0-1.52,0.177-2.099,0.53c-0.58,0.354-1.011,0.827-1.293,1.421V0H1.654V14.842
		L1.654,14.842z M19.539,7.113c0.516,0.488,0.774,1.156,0.774,2.004h-5.577c0.028-0.876,0.304-1.551,0.827-2.024
		c0.522-0.474,1.201-0.71,2.035-0.71C18.376,6.382,19.023,6.626,19.539,7.113L19.539,7.113z M22.009,10.517
		c0.042-0.268,0.067-0.501,0.074-0.699c0.007-0.198,0.01-0.368,0.01-0.509c0-0.607-0.113-1.177-0.339-1.707
		c-0.226-0.53-0.541-0.993-0.943-1.389s-0.876-0.703-1.42-0.922c-0.544-0.219-1.127-0.329-1.749-0.329
		c-0.764,0-1.438,0.127-2.025,0.381c-0.587,0.255-1.082,0.608-1.484,1.061c-0.403,0.452-0.71,0.989-0.923,1.611
		c-0.211,0.622-0.318,1.293-0.318,2.014c0,0.693,0.099,1.347,0.297,1.961c0.198,0.614,0.495,1.148,0.891,1.601
		c0.396,0.453,0.897,0.813,1.505,1.082c0.607,0.269,1.315,0.403,2.12,0.403c0.608,0,1.159-0.085,1.654-0.254
		c0.495-0.169,0.925-0.396,1.293-0.679c0.368-0.282,0.665-0.607,0.891-0.976c0.226-0.368,0.381-0.756,0.466-1.166h-1.866
		c-0.156,0.41-0.421,0.767-0.795,1.071c-0.375,0.304-0.922,0.456-1.644,0.456c-0.537,0-0.989-0.081-1.357-0.244
		c-0.367-0.162-0.667-0.382-0.901-0.657c-0.234-0.275-0.41-0.594-0.53-0.954c-0.121-0.36-0.188-0.746-0.202-1.156H22.009
		L22.009,10.517z M30.724,5.216c-0.241-0.099-0.545-0.148-0.913-0.148c-0.678,0-1.317,0.188-1.918,0.562s-1.029,0.866-1.283,1.474
		V5.216h-1.845v9.626h1.845v-4.219c0-1.159,0.265-2.084,0.795-2.778c0.53-0.692,1.333-1.039,2.406-1.039
		c0.17,0,0.315,0.007,0.435,0.021c0.12,0.014,0.279,0.042,0.478,0.084V5.216L30.724,5.216z M34.349,13.167
		c0.311,0.594,0.771,1.06,1.379,1.399c0.607,0.34,1.264,0.509,1.972,0.509c0.734,0,1.411-0.135,2.025-0.403
		c0.614-0.268,1.138-0.636,1.569-1.102c0.43-0.466,0.766-1.004,1.008-1.612c0.239-0.607,0.36-1.251,0.36-1.93
		c0-0.678-0.121-1.325-0.36-1.94c-0.242-0.615-0.578-1.156-1.008-1.622C40.862,6,40.339,5.633,39.725,5.364
		C39.11,5.096,38.434,4.961,37.7,4.961c-0.708,0-1.364,0.17-1.972,0.509c-0.608,0.34-1.068,0.806-1.379,1.4V0h-1.844v14.842h1.844
		V13.167L34.349,13.167z M36.269,13.146c-0.402-0.184-0.745-0.428-1.029-0.732c-0.283-0.304-0.501-0.66-0.657-1.07
		c-0.155-0.41-0.233-0.849-0.233-1.315c0-0.466,0.078-0.904,0.233-1.314c0.156-0.41,0.374-0.77,0.657-1.081
		c0.284-0.311,0.626-0.559,1.029-0.743s0.852-0.275,1.346-0.275c0.481,0,0.918,0.092,1.315,0.275
		c0.395,0.184,0.73,0.432,1.006,0.743c0.276,0.311,0.491,0.671,0.646,1.081c0.157,0.41,0.235,0.848,0.235,1.314
		c0,0.466-0.078,0.905-0.235,1.315c-0.155,0.41-0.37,0.767-0.646,1.07c-0.276,0.304-0.612,0.548-1.006,0.732
		c-0.397,0.184-0.834,0.275-1.315,0.275C37.12,13.421,36.671,13.33,36.269,13.146L36.269,13.146z"/>
	<polyline display="inline" fill="#005380" points="0,45.032 107.098,45.032 107.098,44.443 0,44.443 	"/>
	<path display="inline" fill="#005380" d="M9.181,30.636v1.652c-0.311-0.593-0.774-1.06-1.389-1.397
		c-0.615-0.341-1.276-0.509-1.982-0.509c-0.735,0-1.407,0.134-2.015,0.403c-0.608,0.268-1.127,0.636-1.559,1.102
		c-0.431,0.467-0.767,1.008-1.007,1.622c-0.241,0.615-0.36,1.263-0.36,1.94s0.12,1.322,0.36,1.93s0.576,1.145,1.007,1.611
		c0.432,0.466,0.951,0.834,1.559,1.103c0.607,0.269,1.279,0.403,2.015,0.403c0.707,0,1.368-0.17,1.982-0.51
		c0.615-0.34,1.078-0.805,1.389-1.398v1.676h1.824v-9.627L9.181,30.636L9.181,30.636z M4.58,38.564
		c-0.396-0.184-0.731-0.428-1.007-0.731c-0.276-0.304-0.491-0.66-0.646-1.069c-0.156-0.41-0.234-0.85-0.234-1.314
		c0-0.467,0.078-0.904,0.234-1.314c0.155-0.408,0.371-0.771,0.646-1.08c0.275-0.312,0.611-0.56,1.007-0.742
		c0.396-0.186,0.841-0.276,1.335-0.276c0.495,0,0.944,0.092,1.347,0.276c0.403,0.184,0.746,0.432,1.028,0.742
		c0.282,0.31,0.502,0.672,0.658,1.08c0.155,0.41,0.233,0.848,0.233,1.314c0,0.466-0.078,0.904-0.233,1.314
		c-0.156,0.409-0.375,0.766-0.658,1.069c-0.283,0.306-0.625,0.549-1.028,0.731C6.86,38.749,6.41,38.84,5.915,38.84
		C5.421,38.841,4.976,38.749,4.58,38.564L4.58,38.564z M20.271,30.636c-0.241-0.1-0.544-0.149-0.912-0.149
		c-0.679,0-1.318,0.188-1.919,0.562c-0.601,0.375-1.028,0.866-1.283,1.475v-1.888h-1.844v9.626h1.844v-4.22
		c0-1.159,0.265-2.084,0.795-2.778c0.53-0.691,1.333-1.037,2.407-1.037c0.169,0,0.314,0.006,0.434,0.021
		c0.121,0.014,0.279,0.041,0.478,0.084V30.636L20.271,30.636z M30.66,34.134c-0.042-0.466-0.159-0.926-0.35-1.378
		c-0.191-0.451-0.467-0.852-0.827-1.197c-0.361-0.347-0.82-0.629-1.378-0.85c-0.558-0.219-1.227-0.328-2.004-0.328
		s-1.467,0.141-2.067,0.424c-0.601,0.282-1.103,0.66-1.506,1.133c-0.403,0.476-0.707,1.016-0.912,1.623
		c-0.205,0.607-0.307,1.237-0.307,1.888c0,0.649,0.102,1.278,0.307,1.887c0.205,0.608,0.512,1.146,0.922,1.612
		s0.912,0.841,1.505,1.123c0.594,0.283,1.286,0.425,2.078,0.425c0.692,0,1.307-0.093,1.845-0.276
		c0.537-0.184,0.993-0.435,1.368-0.752c0.375-0.318,0.675-0.691,0.901-1.124c0.226-0.432,0.374-0.894,0.445-1.39h-1.845
		c-0.156,0.58-0.425,1.04-0.806,1.379c-0.382,0.339-0.975,0.509-1.781,0.509c-0.537,0-1-0.092-1.388-0.276
		c-0.39-0.183-0.71-0.43-0.965-0.74c-0.254-0.311-0.442-0.672-0.562-1.082c-0.12-0.409-0.18-0.842-0.18-1.293
		c0-0.452,0.064-0.883,0.191-1.295c0.127-0.408,0.314-0.772,0.562-1.092c0.247-0.316,0.558-0.567,0.933-0.752
		s0.809-0.275,1.304-0.275c0.904,0,1.559,0.201,1.961,0.605c0.403,0.401,0.639,0.899,0.71,1.493H30.66L30.66,34.134z M33.268,40.262
		h1.845V35.3c0-0.424,0.056-0.834,0.169-1.229c0.112-0.396,0.283-0.744,0.509-1.049c0.225-0.305,0.508-0.549,0.848-0.732
		c0.339-0.184,0.742-0.273,1.208-0.273c0.453,0,0.835,0.08,1.146,0.243c0.311,0.162,0.562,0.382,0.752,0.656
		c0.191,0.276,0.329,0.608,0.414,0.996c0.085,0.391,0.126,0.804,0.126,1.241v5.109h1.845v-5.683c0-0.679-0.057-1.244-0.17-1.696
		c-0.113-0.453-0.304-0.861-0.572-1.23c-0.283-0.408-0.665-0.723-1.145-0.942c-0.481-0.219-1.061-0.328-1.74-0.328
		c-0.819,0-1.52,0.177-2.098,0.529c-0.58,0.354-1.012,0.827-1.294,1.421v-6.913h-1.845v14.843H33.268z M45.248,40.262h1.845v-9.626
		h-1.845V40.262L45.248,40.262z M45.12,28.027c0.283,0.283,0.629,0.423,1.04,0.423c0.41,0,0.764-0.14,1.061-0.423
		c0.297-0.283,0.444-0.629,0.444-1.04c0-0.41-0.147-0.763-0.444-1.06c-0.297-0.297-0.651-0.445-1.061-0.445
		c-0.411,0-0.757,0.148-1.04,0.445c-0.283,0.297-0.423,0.65-0.423,1.06C44.696,27.398,44.836,27.745,45.12,28.027L45.12,28.027z
		 M55.638,38.629c-0.142,0.042-0.336,0.062-0.583,0.062c-0.247,0-0.471,0-0.667,0c-0.242,0-0.457-0.021-0.648-0.062
		c-0.191-0.042-0.358-0.138-0.498-0.285c-0.142-0.148-0.251-0.357-0.329-0.634c-0.078-0.274-0.116-0.644-0.116-1.11v-4.416h2.502
		v-1.548h-2.502V27.39h-1.844v3.246H49.17v1.548h1.782v4.834c0,0.791,0.101,1.414,0.306,1.866c0.205,0.452,0.46,0.788,0.764,1.007
		s0.633,0.357,0.986,0.414s0.679,0.084,0.976,0.084c0.311,0,0.618-0.015,0.922-0.041c0.304-0.029,0.548-0.059,0.732-0.086V38.629
		L55.638,38.629z M63.303,32.532c0.516,0.487,0.773,1.155,0.773,2.004H58.5c0.029-0.876,0.304-1.552,0.828-2.024
		c0.522-0.474,1.201-0.711,2.036-0.711C62.139,31.801,62.788,32.045,63.303,32.532L63.303,32.532z M65.774,35.938
		c0.042-0.271,0.067-0.502,0.074-0.701c0.007-0.196,0.009-0.366,0.009-0.508c0-0.607-0.113-1.178-0.338-1.707
		c-0.226-0.529-0.541-0.994-0.943-1.39c-0.402-0.396-0.876-0.702-1.422-0.923c-0.543-0.219-1.127-0.328-1.749-0.328
		c-0.764,0-1.438,0.126-2.024,0.38c-0.587,0.257-1.082,0.608-1.485,1.062c-0.402,0.451-0.711,0.988-0.922,1.611
		c-0.212,0.623-0.317,1.293-0.317,2.015c0,0.692,0.099,1.347,0.296,1.962c0.198,0.613,0.495,1.146,0.891,1.6
		c0.396,0.453,0.897,0.813,1.505,1.082c0.607,0.27,1.313,0.403,2.121,0.403c0.607,0,1.157-0.085,1.654-0.255
		c0.495-0.17,0.925-0.395,1.293-0.678c0.366-0.283,0.663-0.608,0.89-0.977c0.226-0.368,0.382-0.756,0.467-1.167h-1.866
		c-0.157,0.411-0.421,0.769-0.796,1.071s-0.922,0.455-1.643,0.455c-0.539,0-0.989-0.08-1.357-0.243
		c-0.368-0.162-0.667-0.382-0.902-0.657c-0.233-0.275-0.41-0.594-0.53-0.955c-0.121-0.359-0.188-0.744-0.203-1.154h7.297V35.938z
		 M76.734,30.636H74.4l-4.027,4.39v-9.606h-1.844v14.843h1.844v-4.367l4.027,4.367h2.334l-4.391-4.812L76.734,30.636L76.734,30.636z
		 M83.88,38.629c-0.144,0.042-0.336,0.062-0.584,0.062c-0.246,0-0.47,0-0.667,0c-0.238,0-0.456-0.021-0.646-0.062
		s-0.356-0.138-0.5-0.285c-0.14-0.148-0.25-0.357-0.325-0.634c-0.078-0.274-0.117-0.644-0.117-1.11v-4.416h2.501v-1.548H81.04V27.39
		h-1.847v3.246h-1.779v1.548h1.779v4.834c0,0.791,0.104,1.414,0.31,1.866s0.458,0.788,0.765,1.007
		c0.303,0.219,0.631,0.357,0.983,0.414c0.354,0.057,0.679,0.084,0.976,0.084c0.312,0,0.619-0.015,0.924-0.041
		c0.304-0.029,0.548-0.059,0.73-0.086L83.88,38.629L83.88,38.629z M91.544,32.532c0.519,0.487,0.774,1.155,0.774,2.004h-5.576
		c0.027-0.876,0.304-1.552,0.826-2.024c0.523-0.474,1.203-0.711,2.035-0.711C90.382,31.801,91.027,32.045,91.544,32.532
		L91.544,32.532z M94.016,35.938c0.043-0.271,0.065-0.502,0.073-0.701c0.007-0.196,0.011-0.366,0.011-0.508
		c0-0.607-0.111-1.178-0.338-1.707c-0.228-0.529-0.541-0.994-0.945-1.39c-0.402-0.396-0.877-0.702-1.42-0.923
		c-0.545-0.219-1.127-0.328-1.748-0.328c-0.765,0-1.439,0.126-2.024,0.38c-0.589,0.257-1.081,0.608-1.485,1.062
		c-0.402,0.451-0.709,0.988-0.921,1.611c-0.214,0.623-0.319,1.293-0.319,2.015c0,0.692,0.1,1.347,0.297,1.962
		c0.197,0.613,0.494,1.146,0.891,1.6s0.896,0.813,1.507,1.082c0.607,0.27,1.314,0.403,2.119,0.403c0.606,0,1.16-0.085,1.654-0.255
		c0.495-0.17,0.925-0.395,1.293-0.678s0.665-0.608,0.891-0.977c0.228-0.368,0.382-0.756,0.468-1.167H92.15
		c-0.155,0.411-0.42,0.769-0.793,1.071c-0.375,0.304-0.922,0.455-1.646,0.455c-0.536,0-0.989-0.08-1.356-0.243
		c-0.365-0.162-0.668-0.382-0.899-0.657c-0.233-0.275-0.409-0.594-0.531-0.955c-0.12-0.359-0.187-0.744-0.2-1.154h7.291V35.938z
		 M96.771,40.262h1.845V35.3c0-0.424,0.058-0.834,0.17-1.229s0.282-0.744,0.509-1.049s0.51-0.549,0.85-0.732
		c0.338-0.184,0.74-0.273,1.207-0.273c0.453,0,0.834,0.08,1.146,0.243c0.311,0.162,0.561,0.382,0.752,0.656
		c0.189,0.276,0.329,0.608,0.412,0.996c0.085,0.391,0.129,0.804,0.129,1.241v5.109h1.846v-5.683c0-0.679-0.059-1.244-0.171-1.696
		c-0.112-0.453-0.304-0.861-0.573-1.23c-0.283-0.408-0.664-0.723-1.146-0.942c-0.481-0.219-1.06-0.328-1.737-0.328
		c-0.82,0-1.521,0.177-2.101,0.529c-0.58,0.354-1.011,0.827-1.293,1.421v-1.695h-1.845V40.262L96.771,40.262z"/>
</g>
<g>
	<polyline fill="#89BA17" points="0.107,19.351 50.67,19.351 50.67,18.77 0.107,18.77 	"/>
	<path fill="#89BA17" d="M9.835,5.146H7.534L3.56,9.477V0H1.74v14.643h1.82v-4.309l3.975,4.309h2.301l-4.33-4.749L9.835,5.146
		L9.835,5.146z M18.622,5.146v1.632c-0.307-0.586-0.764-1.046-1.371-1.38c-0.606-0.335-1.259-0.502-1.956-0.502
		c-0.725,0-1.388,0.133-1.987,0.397c-0.6,0.265-1.112,0.627-1.537,1.088c-0.426,0.46-0.757,0.994-0.994,1.6
		c-0.237,0.606-0.355,1.245-0.355,1.914s0.119,1.305,0.355,1.904c0.237,0.6,0.568,1.13,0.994,1.59
		c0.425,0.459,0.937,0.823,1.537,1.087c0.6,0.265,1.262,0.397,1.987,0.397c0.697,0,1.35-0.167,1.956-0.502s1.063-0.795,1.371-1.381
		v1.652h1.799V5.146H18.622L18.622,5.146z M14.082,12.97c-0.39-0.181-0.722-0.421-0.994-0.722c-0.272-0.3-0.484-0.651-0.638-1.056
		c-0.154-0.405-0.23-0.837-0.23-1.297s0.077-0.892,0.23-1.297c0.153-0.404,0.366-0.76,0.638-1.066
		c0.272-0.307,0.604-0.551,0.994-0.733c0.391-0.181,0.83-0.272,1.318-0.272c0.488,0,0.931,0.091,1.329,0.272
		c0.397,0.182,0.735,0.426,1.014,0.733c0.279,0.307,0.496,0.662,0.649,1.066c0.153,0.405,0.23,0.837,0.23,1.297
		s-0.077,0.893-0.23,1.297c-0.153,0.404-0.37,0.756-0.649,1.056c-0.278,0.3-0.617,0.541-1.014,0.722
		c-0.398,0.182-0.841,0.272-1.329,0.272C14.911,13.242,14.472,13.151,14.082,12.97L14.082,12.97z M23.684,14.643h1.82V9.748
		c0-0.418,0.056-0.823,0.167-1.213c0.111-0.39,0.278-0.735,0.501-1.036c0.223-0.299,0.502-0.54,0.837-0.721
		c0.335-0.182,0.732-0.272,1.192-0.272c0.446,0,0.823,0.081,1.13,0.241c0.307,0.161,0.555,0.377,0.742,0.649
		c0.188,0.271,0.325,0.6,0.408,0.983c0.084,0.383,0.125,0.792,0.125,1.223v5.042h1.82V9.037c0-0.669-0.056-1.227-0.167-1.673
		c-0.112-0.446-0.3-0.851-0.565-1.213c-0.279-0.405-0.656-0.714-1.129-0.931c-0.475-0.216-1.046-0.324-1.715-0.324
		c-0.81,0-1.5,0.174-2.072,0.523c-0.572,0.349-0.997,0.816-1.275,1.401V0h-1.82L23.684,14.643L23.684,14.643z M35.503,14.643h1.82V0
		h-1.82V14.643L35.503,14.643z M46.862,14.476c0.613-0.265,1.141-0.628,1.579-1.087c0.44-0.46,0.778-0.99,1.015-1.59
		c0.238-0.599,0.356-1.234,0.356-1.904c0-0.669-0.118-1.308-0.356-1.914c-0.236-0.606-0.574-1.14-1.015-1.6
		c-0.438-0.46-0.965-0.823-1.579-1.088c-0.614-0.265-1.304-0.397-2.071-0.397c-0.753,0-1.437,0.133-2.05,0.397
		c-0.614,0.265-1.137,0.627-1.569,1.088c-0.432,0.46-0.767,0.994-1.004,1.6c-0.238,0.606-0.355,1.245-0.355,1.914
		s0.118,1.305,0.355,1.904c0.237,0.6,0.572,1.13,1.004,1.59c0.433,0.459,0.955,0.823,1.569,1.087
		c0.613,0.265,1.297,0.397,2.05,0.397C45.558,14.874,46.248,14.741,46.862,14.476L46.862,14.476z M43.473,12.97
		c-0.391-0.181-0.722-0.421-0.994-0.722c-0.272-0.3-0.485-0.651-0.638-1.056c-0.154-0.405-0.23-0.837-0.23-1.297
		s0.077-0.892,0.23-1.297c0.153-0.404,0.366-0.76,0.638-1.066c0.272-0.307,0.603-0.551,0.994-0.733
		c0.39-0.181,0.83-0.272,1.318-0.272s0.931,0.091,1.328,0.272c0.398,0.182,0.735,0.426,1.015,0.733
		c0.279,0.307,0.495,0.662,0.649,1.066c0.153,0.405,0.23,0.837,0.23,1.297s-0.077,0.893-0.23,1.297
		c-0.154,0.405-0.37,0.756-0.649,1.056c-0.279,0.3-0.617,0.541-1.015,0.722c-0.397,0.182-0.84,0.272-1.328,0.272
		S43.863,13.151,43.473,12.97L43.473,12.97z"/>
	<polyline fill="#505C28" points="0.107,44.43 17.01,44.43 17.01,43.848 0.107,43.848 	"/>
	<polyline fill="#505C28" points="29.457,44.43 131,44.43 131,43.848 29.457,43.848 	"/>
	<path fill="#505C28" d="M1.739,39.723h1.82v-9.498h-1.82V39.723L1.739,39.723z M1.614,27.652c0.278,0.279,0.62,0.417,1.025,0.417
		c0.404,0,0.753-0.139,1.045-0.417c0.293-0.279,0.439-0.621,0.439-1.026c0-0.404-0.146-0.752-0.439-1.045
		c-0.292-0.293-0.642-0.439-1.045-0.439c-0.405,0-0.747,0.146-1.025,0.439c-0.279,0.292-0.419,0.641-0.419,1.045
		C1.195,27.031,1.335,27.373,1.614,27.652L1.614,27.652z M6.823,39.723h1.82v-4.896c0-0.419,0.056-0.822,0.167-1.213
		c0.111-0.392,0.279-0.735,0.502-1.036s0.502-0.54,0.837-0.723c0.335-0.181,0.732-0.271,1.192-0.271c0.446,0,0.823,0.08,1.13,0.24
		c0.306,0.159,0.554,0.377,0.742,0.647c0.188,0.272,0.325,0.602,0.408,0.982c0.084,0.385,0.125,0.792,0.125,1.225v5.043h1.821
		v-5.606c0-0.671-0.056-1.228-0.167-1.675c-0.112-0.445-0.3-0.851-0.565-1.213c-0.279-0.404-0.655-0.715-1.129-0.932
		c-0.475-0.216-1.046-0.324-1.716-0.324c-0.809,0-1.499,0.174-2.071,0.522c-0.572,0.349-0.997,0.815-1.275,1.401v-1.672h-1.82
		L6.823,39.723L6.823,39.723z"/>
	<path fill="#505C28" d="M24.175,31.878c0.397,0.183,0.735,0.425,1.015,0.731c0.279,0.307,0.495,0.662,0.648,1.066
		c0.154,0.405,0.23,0.836,0.23,1.297s-0.077,0.894-0.23,1.299c-0.153,0.402-0.369,0.756-0.648,1.055
		c-0.279,0.301-0.617,0.542-1.015,0.723c-0.398,0.182-0.84,0.271-1.329,0.271c-0.489,0-0.928-0.092-1.318-0.271
		c-0.391-0.181-0.721-0.422-0.994-0.723c-0.272-0.299-0.485-0.651-0.638-1.055c-0.154-0.405-0.229-0.838-0.229-1.299
		s0.076-0.892,0.229-1.297c0.153-0.404,0.366-0.761,0.638-1.066c0.272-0.308,0.603-0.551,0.994-0.731
		c0.39-0.183,0.83-0.272,1.318-0.272C23.334,31.605,23.777,31.695,24.175,31.878L24.175,31.878z M27.867,30.225h-1.799v1.63
		c-0.307-0.586-0.764-1.045-1.37-1.379c-0.607-0.335-1.259-0.502-1.956-0.502c-0.726,0-1.388,0.133-1.988,0.397
		c-0.6,0.264-1.112,0.627-1.537,1.087c-0.426,0.461-0.756,0.994-0.994,1.601c-0.238,0.607-0.356,1.244-0.356,1.914
		s0.119,1.305,0.356,1.903c0.237,0.601,0.568,1.13,0.994,1.59c0.425,0.46,0.938,0.823,1.537,1.089
		c0.6,0.266,1.262,0.397,1.988,0.397c0.697,0,1.349-0.168,1.956-0.503c0.606-0.335,1.063-0.795,1.37-1.381v2.259
		c0,1.116-0.289,1.919-0.868,2.405c-0.579,0.488-1.377,0.732-2.396,0.732c-0.502,0-0.935-0.068-1.296-0.209
		c-0.363-0.14-0.663-0.324-0.9-0.555c-0.237-0.229-0.418-0.498-0.544-0.805c-0.125-0.309-0.203-0.629-0.23-0.963h-1.841
		c0.028,0.529,0.143,1.047,0.346,1.547c0.202,0.502,0.498,0.944,0.889,1.328c0.391,0.385,0.882,0.691,1.475,0.922
		c0.593,0.229,1.293,0.345,2.102,0.345c0.795,0,1.503-0.086,2.124-0.261c0.621-0.176,1.15-0.453,1.59-0.838
		c0.439-0.384,0.773-0.875,1.004-1.476c0.229-0.599,0.345-1.324,0.345-2.176L27.867,30.225L27.867,30.225z"/>
	<path fill="#505C28" d="M36.915,32.098c0.509,0.48,0.764,1.141,0.764,1.978h-5.502c0.028-0.865,0.3-1.53,0.815-1.998
		c0.516-0.468,1.186-0.701,2.008-0.701C35.768,31.375,36.406,31.615,36.915,32.098L36.915,32.098z M39.352,35.455
		c0.042-0.266,0.066-0.495,0.073-0.691c0.007-0.193,0.01-0.361,0.01-0.502c0-0.599-0.111-1.16-0.334-1.684
		c-0.224-0.521-0.533-0.979-0.931-1.37c-0.397-0.392-0.865-0.692-1.401-0.91c-0.537-0.216-1.112-0.324-1.726-0.324
		c-0.753,0-1.419,0.125-1.998,0.376c-0.578,0.251-1.067,0.6-1.464,1.046c-0.397,0.445-0.701,0.976-0.91,1.59
		c-0.209,0.613-0.314,1.274-0.314,1.986c0,0.685,0.098,1.328,0.293,1.937c0.195,0.604,0.488,1.133,0.878,1.577
		c0.39,0.447,0.885,0.804,1.485,1.068c0.6,0.266,1.297,0.397,2.092,0.397c0.6,0,1.144-0.084,1.632-0.252
		c0.488-0.167,0.913-0.39,1.276-0.669c0.363-0.279,0.656-0.602,0.878-0.963c0.223-0.362,0.376-0.745,0.46-1.15H37.51
		c-0.154,0.405-0.415,0.757-0.784,1.057c-0.37,0.301-0.911,0.449-1.622,0.449c-0.53,0-0.977-0.078-1.339-0.24
		c-0.362-0.16-0.659-0.377-0.889-0.647c-0.23-0.272-0.404-0.585-0.523-0.94s-0.185-0.736-0.199-1.141H39.352L39.352,35.455z
		 M42.071,39.723h1.82v-4.896c0-0.419,0.056-0.822,0.167-1.213c0.111-0.392,0.279-0.735,0.502-1.036s0.502-0.54,0.836-0.723
		c0.335-0.181,0.732-0.271,1.193-0.271c0.446,0,0.822,0.08,1.129,0.24c0.307,0.159,0.554,0.377,0.743,0.647
		c0.188,0.272,0.323,0.602,0.407,0.982c0.084,0.385,0.126,0.792,0.126,1.225v5.043h1.819v-5.606c0-0.671-0.054-1.228-0.167-1.675
		c-0.113-0.445-0.3-0.851-0.564-1.213c-0.279-0.404-0.656-0.715-1.13-0.932c-0.474-0.216-1.046-0.324-1.715-0.324
		c-0.809,0-1.499,0.174-2.071,0.522c-0.572,0.349-0.997,0.815-1.276,1.401v-1.672h-1.82L42.071,39.723L42.071,39.723z
		 M53.891,39.723h1.82v-9.498h-1.82V39.723L53.891,39.723z M53.766,27.652c0.278,0.279,0.62,0.417,1.023,0.417
		c0.404,0,0.754-0.139,1.047-0.417c0.292-0.279,0.439-0.621,0.439-1.026c0-0.404-0.146-0.752-0.439-1.045s-0.643-0.439-1.047-0.439
		c-0.404,0-0.746,0.146-1.023,0.439c-0.279,0.292-0.42,0.641-0.42,1.045C53.346,27.031,53.487,27.373,53.766,27.652L53.766,27.652z
		 M64.8,32.098c0.508,0.48,0.764,1.141,0.764,1.978h-5.502c0.028-0.865,0.301-1.53,0.816-1.998s1.185-0.701,2.009-0.701
		C63.654,31.375,64.292,31.615,64.8,32.098L64.8,32.098z M67.238,35.455c0.041-0.266,0.064-0.495,0.072-0.691
		c0.006-0.193,0.01-0.361,0.01-0.502c0-0.599-0.111-1.16-0.334-1.684c-0.223-0.521-0.533-0.979-0.932-1.37
		c-0.396-0.392-0.865-0.692-1.402-0.91c-0.537-0.216-1.112-0.324-1.727-0.324c-0.752,0-1.418,0.125-1.998,0.376
		c-0.579,0.251-1.067,0.6-1.464,1.046c-0.397,0.445-0.702,0.976-0.91,1.59c-0.209,0.613-0.313,1.274-0.313,1.986
		c0,0.685,0.098,1.328,0.293,1.937c0.195,0.604,0.488,1.133,0.878,1.577c0.391,0.447,0.885,0.804,1.484,1.068
		c0.601,0.266,1.298,0.397,2.093,0.397c0.599,0,1.143-0.084,1.632-0.252c0.488-0.167,0.913-0.39,1.276-0.669
		c0.362-0.279,0.655-0.602,0.878-0.963c0.223-0.362,0.377-0.745,0.461-1.15h-1.841c-0.154,0.405-0.415,0.757-0.785,1.057
		c-0.37,0.301-0.91,0.449-1.621,0.449c-0.531,0-0.976-0.078-1.339-0.24c-0.363-0.16-0.658-0.377-0.89-0.647
		c-0.229-0.272-0.404-0.585-0.522-0.94c-0.118-0.355-0.185-0.736-0.199-1.141H67.238L67.238,35.455z M76.691,30.225V35.1
		c0,0.433-0.055,0.844-0.166,1.233c-0.112,0.392-0.279,0.735-0.502,1.035c-0.224,0.301-0.506,0.536-0.849,0.712
		c-0.342,0.175-0.741,0.261-1.202,0.261c-0.445,0-0.82-0.079-1.119-0.239s-0.543-0.377-0.732-0.648
		c-0.188-0.271-0.322-0.596-0.406-0.973s-0.127-0.787-0.127-1.234v-5.02H69.77v5.607c0,0.668,0.053,1.228,0.156,1.673
		c0.104,0.447,0.288,0.852,0.555,1.213c0.278,0.391,0.658,0.694,1.141,0.91c0.482,0.217,1.057,0.325,1.727,0.325
		c0.795,0,1.481-0.175,2.061-0.522c0.578-0.35,1.007-0.816,1.285-1.402v1.695h1.82v-9.499L76.691,30.225L76.691,30.225z
		 M87.654,30.225c-0.236-0.098-0.536-0.146-0.899-0.146c-0.67,0-1.301,0.185-1.894,0.554c-0.592,0.37-1.014,0.854-1.266,1.454
		v-1.862h-1.818v9.498h1.818v-4.162c0-1.146,0.262-2.058,0.784-2.742c0.522-0.684,1.313-1.023,2.374-1.023
		c0.168,0,0.311,0.007,0.43,0.021c0.117,0.014,0.273,0.041,0.471,0.082V30.225L87.654,30.225z M91.23,38.07
		c0.307,0.584,0.761,1.045,1.359,1.38c0.6,0.335,1.248,0.503,1.945,0.503c0.727,0,1.392-0.133,1.999-0.398
		c0.606-0.265,1.122-0.628,1.547-1.088c0.427-0.46,0.758-0.988,0.994-1.59c0.237-0.6,0.356-1.232,0.356-1.902
		s-0.119-1.309-0.356-1.914c-0.236-0.606-0.567-1.141-0.994-1.602c-0.425-0.46-0.94-0.823-1.547-1.087
		c-0.607-0.265-1.272-0.397-1.999-0.397c-0.697,0-1.346,0.167-1.945,0.502c-0.6,0.333-1.054,0.794-1.359,1.38v-6.778h-1.818v14.646
		h1.818V38.07L91.23,38.07z M93.124,38.049c-0.397-0.181-0.735-0.422-1.015-0.723c-0.279-0.299-0.496-0.651-0.647-1.055
		c-0.153-0.405-0.229-0.838-0.229-1.299s0.076-0.892,0.229-1.297c0.151-0.404,0.368-0.761,0.647-1.066
		c0.279-0.307,0.617-0.551,1.015-0.731s0.84-0.272,1.329-0.272c0.474,0,0.906,0.092,1.297,0.272
		c0.391,0.183,0.723,0.425,0.995,0.731c0.271,0.307,0.483,0.662,0.638,1.066c0.151,0.405,0.229,0.836,0.229,1.297
		s-0.076,0.894-0.229,1.299c-0.154,0.402-0.367,0.756-0.638,1.055c-0.272,0.301-0.604,0.542-0.995,0.723
		c-0.391,0.182-0.823,0.271-1.297,0.271C93.964,38.32,93.521,38.229,93.124,38.049L93.124,38.049z M110.498,30.225h-1.82V35.1
		c0,0.433-0.055,0.844-0.166,1.233c-0.113,0.392-0.279,0.735-0.504,1.035c-0.223,0.301-0.504,0.536-0.847,0.712
		c-0.341,0.175-0.742,0.261-1.203,0.261c-0.444,0-0.819-0.079-1.119-0.239c-0.299-0.16-0.542-0.377-0.729-0.648
		c-0.188-0.271-0.325-0.596-0.409-0.973s-0.124-0.787-0.124-1.234v-5.02h-1.821v5.607c0,0.668,0.054,1.228,0.157,1.673
		c0.104,0.447,0.288,0.852,0.554,1.213c0.279,0.391,0.66,0.694,1.14,0.91c0.481,0.217,1.059,0.325,1.729,0.325
		c0.794,0,1.482-0.175,2.061-0.522c0.578-0.35,1.006-0.816,1.285-1.402v1.695h1.82v-9.5H110.498z M107.507,27.997
		c0.278,0.286,0.621,0.429,1.025,0.429c0.403,0,0.754-0.143,1.047-0.429s0.438-0.631,0.438-1.035c0-0.405-0.146-0.75-0.438-1.036
		c-0.293-0.285-0.644-0.429-1.047-0.429c-0.404,0-0.747,0.144-1.025,0.429c-0.278,0.286-0.418,0.631-0.418,1.036
		C107.089,27.366,107.229,27.711,107.507,27.997L107.507,27.997z M102.705,27.997c0.286,0.286,0.632,0.429,1.035,0.429
		c0.406,0,0.752-0.143,1.037-0.429c0.283-0.286,0.428-0.631,0.428-1.035c0-0.405-0.145-0.75-0.428-1.036
		c-0.285-0.285-0.631-0.429-1.037-0.429c-0.403,0-0.749,0.144-1.035,0.429c-0.285,0.286-0.43,0.631-0.43,1.036
		C102.275,27.366,102.42,27.711,102.705,27.997L102.705,27.997z M119.639,30.225c-0.234-0.098-0.535-0.146-0.897-0.146
		c-0.671,0-1.302,0.185-1.894,0.554c-0.593,0.37-1.016,0.854-1.265,1.454v-1.862h-1.819v9.498h1.819v-4.162
		c0-1.146,0.261-2.058,0.783-2.742c0.521-0.684,1.313-1.023,2.374-1.023c0.168,0,0.311,0.007,0.429,0.021
		c0.118,0.014,0.274,0.041,0.47,0.082V30.225L119.639,30.225z M127.191,39.555c0.615-0.265,1.142-0.628,1.578-1.088
		c0.44-0.46,0.779-0.988,1.016-1.59c0.236-0.6,0.355-1.232,0.355-1.902s-0.119-1.309-0.355-1.914
		c-0.235-0.606-0.574-1.141-1.016-1.602c-0.438-0.46-0.963-0.823-1.578-1.087c-0.613-0.265-1.305-0.397-2.07-0.397
		c-0.754,0-1.438,0.133-2.051,0.397c-0.614,0.264-1.137,0.627-1.567,1.087c-0.435,0.461-0.769,0.994-1.006,1.602
		c-0.235,0.605-0.356,1.244-0.356,1.914s0.121,1.305,0.356,1.902c0.237,0.602,0.571,1.13,1.006,1.59
		c0.431,0.46,0.953,0.823,1.567,1.088c0.613,0.266,1.297,0.398,2.051,0.398C125.889,39.953,126.578,39.82,127.191,39.555
		L127.191,39.555z M123.802,38.049c-0.39-0.181-0.722-0.422-0.991-0.723c-0.271-0.299-0.485-0.651-0.641-1.055
		c-0.152-0.405-0.229-0.838-0.229-1.299s0.076-0.892,0.229-1.297c0.154-0.404,0.368-0.761,0.641-1.066
		c0.271-0.308,0.603-0.551,0.991-0.731c0.392-0.183,0.831-0.272,1.319-0.272s0.931,0.092,1.328,0.272
		c0.396,0.183,0.734,0.425,1.015,0.731c0.278,0.307,0.494,0.662,0.647,1.066c0.152,0.405,0.229,0.836,0.229,1.297
		s-0.077,0.894-0.229,1.299c-0.153,0.402-0.369,0.756-0.647,1.055c-0.278,0.301-0.618,0.542-1.015,0.723
		c-0.397,0.182-0.84,0.271-1.328,0.271S124.191,38.229,123.802,38.049L123.802,38.049z"/>
</g>
</svg>
