<?xml version="1.0" encoding="UTF-8" standalone="no"?>
<!-- Created with Inkscape (http://www.inkscape.org/) -->

<svg
   xmlns:dc="http://purl.org/dc/elements/1.1/"
   xmlns:cc="http://creativecommons.org/ns#"
   xmlns:rdf="http://www.w3.org/1999/02/22-rdf-syntax-ns#"
   xmlns:svg="http://www.w3.org/2000/svg"
   xmlns="http://www.w3.org/2000/svg"
   xmlns:sodipodi="http://sodipodi.sourceforge.net/DTD/sodipodi-0.dtd"
   xmlns:inkscape="http://www.inkscape.org/namespaces/inkscape"
   version="1.1"
   width="100mm"
   height="100mm"
   id="svg3852"
   sodipodi:docname="FWHN_Logo_final_für_Hintergrund_dunkel.svg"
   inkscape:version="0.92.5 (2060ec1f9f, 2020-04-08)"
   inkscape:export-filename="C:\PRIV\FördervereinHandball\FWHN_Logo_final_für_Hintergrund_dunkel.png"
   inkscape:export-xdpi="768.09601"
   inkscape:export-ydpi="768.09601">
  <sodipodi:namedview
     pagecolor="#ffffff"
     bordercolor="#666666"
     borderopacity="1"
     objecttolerance="10"
     gridtolerance="10"
     guidetolerance="10"
     inkscape:pageopacity="0"
     inkscape:pageshadow="2"
     inkscape:window-width="5973"
     inkscape:window-height="3250"
     id="namedview7"
     showgrid="true"
     units="mm"
     inkscape:zoom="4"
     inkscape:cx="270.03151"
     inkscape:cy="166.8825"
     inkscape:window-x="-12"
     inkscape:window-y="-12"
     inkscape:window-maximized="1"
     inkscape:current-layer="svg3852"
     showguides="true"
     inkscape:guide-bbox="true"
     inkscape:snap-text-baseline="true"
     inkscape:snap-bbox="true"
     inkscape:bbox-nodes="true"
     inkscape:snap-bbox-midpoints="true">
    <inkscape:grid
       type="xygrid"
       id="grid814" />
  </sodipodi:namedview>
  <metadata
     id="metadata3858">
    <rdf:RDF>
      <cc:Work
         rdf:about="">
        <dc:format>image/svg+xml</dc:format>
        <dc:type
           rdf:resource="http://purl.org/dc/dcmitype/StillImage" />
        <dc:title></dc:title>
      </cc:Work>
    </rdf:RDF>
  </metadata>
  <defs
     id="defs3856" />
  <path
     style="opacity:1;vector-effect:none;fill:#ff00ff;fill-opacity:1;stroke:none;stroke-width:59.99999619;stroke-linecap:square;stroke-linejoin:round;stroke-miterlimit:4;stroke-dasharray:none;stroke-dashoffset:0;stroke-opacity:1"
     d="m 191.3726,113.04257 -7.183,3.08 v 1.9156 l 0.022,0.0532 0.137,0.95443 0.058,1.12684 c 0,0.68724 -0.091,1.36768 -0.2166,2.04157 v 1.08928 c 3.9309,0.39379 5.7962,1.84043 6.9686,2.41714 0,8.7e-4 0,8.7e-4 0.011,0 l 0.018,0.0114 c 2.2009,1.06745 3.1494,1.92634 3.798,2.43484 0.7848,0.15 2.8005,0.5412 5.2852,1.0583 1.3847,0.2883 2.7767,0.6049 4.1692,0.9766 0,-0.1399 -0.016,-0.2996 -0.016,-0.433 0,-0.256 0.023,-0.7792 0.037,-1.1909 -0.011,-0.031 0.029,0.068 -0.1857,-0.4728 -0.3253,-0.81577 -1.5113,-4.78532 -0.3978,-8.36505 0.3366,-1.07367 0.9426,-2.20978 1.7235,-3.27225 -4.5843,-1.52329 -9.3334,-2.68635 -14.2246,-3.4269 z m -56.1714,10.49947 c -2.3561,1.35274 -4.6417,2.81319 -6.8517,4.37463 0.2381,0.1705 0.4434,0.3268 0.6783,0.4928 1.2942,0.9144 2.1994,1.5783 3.3319,2.3752 0.058,-0.011 0.089,-0.012 0.1547,-0.024 0.082,-0.011 0.5656,-0.026 0.6097,-0.046 0.2703,-0.3085 0.5574,-0.6021 0.8596,-0.8795 0.044,-0.06 0.1497,-0.2174 0.2209,-0.3203 -0.011,-0.011 -0.2386,-0.1503 -0.2386,-0.1503 0,0 0.2915,-0.3493 0.4618,-0.5545 l -0.058,-0.042 c 0,0 0.1992,-0.221 0.2784,-0.3093 0.018,-0.1968 0,-0.071 0.055,-0.696 0.041,-0.43984 0.084,-0.78781 0.1149,-1.04291 0.053,-0.43157 0.1179,-0.82434 0.179,-1.17096 0.049,-0.2862 0.1245,-0.56913 0.1834,-0.85285 0,-0.36709 0.016,-0.77445 0.021,-1.15331 z m 69.2802,4.41223 c -0.1029,1.0177 -0.035,0.4787 -0.035,0.4154 0,-0.011 0.021,0.095 0.021,0.084 0.018,-0.2244 -0.032,0 0.018,-0.4993 z m -69.5211,0.024 c -0.015,0.033 -0.027,0.041 -0.042,0.075 -0.033,0.08 -0.027,0.097 -0.053,0.1658 0.033,-0.036 0.042,-0.046 0.077,-0.086 0,-0.011 0.018,-0.1109 0.018,-0.1546 z m 103.0498,8.2746 c -0.2394,0.1825 -0.754,0.5631 -1.4206,1.0914 -0.1507,0.1193 -0.2748,0.2144 -0.3912,0.3094 -1.1231,2.852 -2.3336,4.2796 -3.449,5.5546 -0.1653,0.1888 -0.3485,0.3443 -0.5126,0.5214 -0.3511,1.0231 -0.5067,1.7663 -1.1333,3.0403 -0.2705,0.5495 -0.529,1.0371 -0.7889,1.5576 l 8.5971,0.4176 c -0.2065,-7.4365 -0.6817,-8.7556 -0.9015,-12.4923 z m -1.4009,0.5457 c 0.023,-0.04 -0.085,0.1774 -0.1259,0.2916 -0.04,0.1135 -0.085,0.1478 -0.1259,0.2564 0.3152,-0.4074 0.2382,-0.5254 0.2518,-0.548 z m -2.0504,2.1675 c -0.07,0.053 -0.066,0.056 -0.1435,0.1149 l 0.1108,-0.084 c 0.022,-0.018 0.011,-0.012 0.033,-0.03 z m 7.7022,1.3036 c 0.2208,1.9682 0.445,4.5458 0.5524,9.7327 2.3899,2.6157 14.9028,16.9718 16.5601,32.6294 0.5783,-0.059 1.182,-0.1208 1.8626,-0.1965 1.0437,-0.1169 1.3944,-0.1594 2.0901,-0.2409 -3.0764,-15.9737 -10.5218,-30.3831 -21.0652,-41.9247 z m -135.129,9.0125 c -5.86,8.4222 -10.2718,17.927 -12.8503,28.1707 0.9733,-0.1086 1.5011,-0.18 2.1564,-0.2761 2.0677,-7.4081 7.8859,-14.632 13.2546,-20.283 0.5603,-0.5897 1.0943,-1.1077 1.6416,-1.6594 -0.4043,-0.5149 -0.8105,-1.0231 -1.2063,-1.5621 -1.0632,-1.4474 -2.0658,-2.9237 -2.996,-4.3901 z m 121.0857,2.8192 c -1.5508,2.3727 -3.5795,4.5454 -7.1653,6.7964 -0.3148,0.1976 -0.9655,0.758 -2.6691,1.7675 -0.6348,0.3763 -1.8294,0.8414 -3.0026,1.2638 -1.3543,1.3487 -3.0282,2.3324 -4.8653,2.8591 0,0 -0.6141,0.1714 -1.3522,0.3667 l -5.7159,15.431 c 4.3445,4.4162 8.7376,11.8118 12.351,18.4822 3.6134,6.6701 5.8137,11.536 6.2417,12.4703 h 24.2246 c 13.8159,-12.3603 9.3638,-27.8261 9.3638,-27.8261 l -0.049,-0.1657 -0.014,-0.1746 c -1.3739,-14.5517 -14.2297,-29.1751 -15.5989,-30.7005 z m -114.3844,6.0873 c -0.4412,0.4482 -0.8827,0.8941 -1.3345,1.3698 -5.4057,5.6901 -11.0315,13.1329 -12.5145,19.4876 0.025,0.2775 0.4654,5.2878 1.9841,11.9511 1.4963,6.5648 4.0717,14.3148 7.8568,19.587 9.5916,0.3659 14.7437,0.5895 18.9729,0.7247 -0.1556,-1.2572 -0.2858,-3.0401 -0.084,-5.5215 0.2013,-2.4953 0.6345,-4.8321 1.1467,-7.0593 0.513,-2.23 0.4576,-3.3954 2.2978,-6.8316 0.011,-0.017 0.016,-0.034 0.027,-0.051 1.2637,-2.332 2.6584,-3.7686 3.7538,-4.7881 0.4278,-1.1212 1.0194,-2.7083 1.233,-3.2831 0,-0.084 2e-4,-0.1518 0,-0.2298 -0.3954,-0.8987 -1.1428,-3.7138 -1.3612,-7.1366 -0.1108,-1.6967 -0.2836,-5.402 -0.5854,-9.3571 -0.042,0 -0.094,3e-4 -0.1348,0 -1.5594,-0.012 -2.9554,-0.029 -3.9328,-0.04 h -1.0584 c -0.3468,0.023 -0.6949,0.035 -1.0429,0.035 0.5349,0.011 0.5207,2e-4 0.7026,0 0.1275,-0.011 0.2729,-0.025 0.3183,-0.029 0.048,0 0.1451,0.023 -0.3183,0.029 -0.06,0 -0.079,0.011 -0.1502,0.014 -0.4446,0.036 -1.0795,0.077 -1.8935,0.088 -0.8141,0.011 -1.7753,0.011 -3.27,-0.2631 -1.4948,-0.2736 -3.9881,-0.362 -7.1808,-3.9283 -0.017,-0.018 -0.034,-0.037 -0.051,-0.055 -0.668,-0.7562 -1.5071,-1.7883 -2.3642,-2.9894 -0.3746,-0.5306 -0.7029,-1.0924 -0.981,-1.6793 -0.012,-0.014 -0.023,-0.029 -0.035,-0.042 z m 90.8314,7.9652 c -1.7861,0.2834 -3.4679,0.2879 -4.6995,0.2055 -0.091,0.023 -0.4546,0.1512 -0.6451,0.2032 -0.3627,1.0718 -0.4191,1.3936 -1.5644,4.3218 -0.3004,0.7704 -1.258,4.21 -1.9598,7.1211 -0.063,0.2624 -0.1174,0.4764 -0.179,0.7335 h 4.3858 z m -108.3525,14.9691 c -0.9099,0.1281 -1.8496,0.2313 -2.9386,0.3094 -1.1256,5.576 -1.7212,11.3466 -1.7212,17.256 0,12.5669 2.6942,24.4923 7.5055,35.2632 0.1698,-0.1376 0.3191,-0.2669 0.5216,-0.4177 0.9402,-0.7002 2.5871,-1.3506 4.2156,-1.8272 0.3609,-0.1556 0.9649,-0.4061 1.3676,-0.6562 0.4462,-0.2772 0.8994,-0.5743 1.1887,-0.7733 0.042,-0.029 0.03,-0.023 0.06,-0.044 0.1186,-0.1131 0.2501,-0.2245 0.4154,-0.369 -0.7458,-5.5024 -1.213,-11.7748 -0.2209,-16.887 -4.3969,-6.0616 -6.9484,-14.2747 -8.5087,-21.1203 -1.058,-4.6419 -1.6081,-8.4929 -1.8847,-10.7337 z m 41.5513,0.9656 c 0,0 -0.1734,0.2937 -0.3535,0.8064 0.1075,-0.2733 0.2253,-0.5422 0.3535,-0.8064 z m 56.7901,0.5214 c -0.1143,0.4312 -0.2199,0.8443 -0.3822,1.3522 -0.1132,0.3544 -0.2336,0.7319 -0.4971,1.3544 -0.017,0.041 -0.042,0.112 -0.055,0.1524 -0.082,0.032 -0.1718,0.074 -0.1967,0.1636 -0.031,0.1137 -0.2951,0.7551 -0.3358,0.9479 v 0.056 c 0.033,-0.059 0.1805,-0.2099 0.2054,-0.2608 -0.042,0.093 -0.141,0.2117 -0.201,0.3203 0.053,0.49 0.1041,0.2101 0.1041,1.1092 0,-1.205 0.2401,4.2622 -1.2948,8.533 v 0.011 c 0.3327,-0.9226 -0.1772,1.0195 -0.3446,2.647 -0.084,0.8164 -0.1531,1.6488 -0.2209,2.4193 -0.067,0.7704 0.029,0.9164 -0.347,2.7928 v 0.018 c -0.235,1.1617 0.1806,2.216 -1.0473,4.4367 -0.1727,1.7475 -0.54,3.1991 -0.9767,4.3416 -0.1895,0.4965 -0.3576,0.8858 -0.5102,1.3013 -0.03,-0.3151 -0.2846,-0.2809 -0.4154,0.2741 -0.077,0.3261 -0.3072,0.9141 -0.4553,1.3786 -0.3359,0.4952 -0.6067,0.8623 -0.8461,1.1821 0.2146,-0.2612 0.388,-0.4773 0.7534,-0.9014 -0.2605,0.7752 -0.6337,1.5361 -1.1047,2.4767 0,1.087 0.1162,3.264 -0.3005,6.2638 -0.6851,4.9484 -2.1434,7.7291 -3.4402,10.895 -1.2967,3.1658 -2.5122,5.7933 -2.5122,5.7933 -0.7533,1.629 -1.8857,3.0524 -3.2986,4.1583 6.7464,0.3673 14.7565,0.1791 21.7853,-1.7147 1.5897,-1.3454 14.4806,-12.6825 20.0466,-30.515 -0.4246,-0.9264 -2.829,-6.1417 -6.3721,-12.6823 -3.7735,-6.966 -8.6737,-14.8203 -12.4085,-18.3034 z m 65.0027,1.6505 c 0.011,0.061 0.021,0.1357 0.03,0.1989 h 0.046 c 0,1e-4 -0.049,-0.1255 -0.077,-0.1989 z m 4.3217,1.7543 c -0.6895,0.082 -1.1538,0.1377 -2.3112,0.2674 -0.6214,0.07 -1.1661,0.1257 -1.721,0.1834 0.5507,5.9907 -0.011,17.9881 -10.9105,27.8438 0.044,1.2419 0.2527,7.3903 0.077,14.7658 -0.097,4.0767 -0.3148,8.3111 -0.7623,11.9025 -0.2246,1.8024 -0.4369,3.4122 -0.7976,4.8233 l 3.1021,0.5038 c 9.0038,-13.6624 14.2554,-30.0186 14.2554,-47.6164 0,-4.3069 -0.3264,-8.5356 -0.9323,-12.6736 z m -153.6135,28.4756 c -0.5635,3.7637 -0.3233,8.6981 0.2076,13.2879 0.1041,-0.038 0.1941,-0.079 0.3027,-0.1171 1.4439,-0.4968 2.7467,-0.648 3.7893,-0.6673 0.4321,-0.356 0.5104,-0.3115 0.9588,-0.7777 l 0.011,-0.014 c 2.9152,-3.023 7.0076,-6.967 7.2956,-7.2449 0.1602,-0.1814 0.6853,-0.7851 1.5953,-1.7035 l 0.07,-0.069 c 0.407,-0.4035 0.9308,-0.5602 1.3875,-0.8726 0.3266,-0.3411 0.6467,-0.6718 1.1445,-1.1755 -3.9839,-0.1384 -8.5177,-0.3312 -16.7632,-0.6474 z m 111.8986,0.9171 c -5.261,16.231 -16.0677,27.1319 -19.9183,30.6432 l 14.5162,16.37 c 16.7564,-4.3032 25.9725,-15.389 26.0143,-15.4399 0.3237,-0.4063 1.2154,-3.1132 1.6351,-6.4804 0.4198,-3.3701 0.6385,-7.5138 0.7336,-11.5157 0.1521,-6.4256 0.017,-11.4383 -0.051,-13.5772 z m -35.7051,2.6425 c -0.022,0 -0.062,0.1175 -0.062,0.3711 0,0.011 2e-4,0.065 0,0.077 0.067,-0.2667 0.089,-0.4474 0.067,-0.4485 z m 12.3444,29.956 c -8.6819,2.1822 -18.236,2.0726 -25.6101,1.4538 -3.824,5.7532 -10.82,14.8318 -14.0743,19.0059 v 0.011 c -1.7752,2.2733 -2.8992,3.6328 -3.9659,4.7747 -0.2572,0.2752 -0.5489,0.5587 -0.844,0.8329 0.1029,-0.049 -0.1,0.1859 -0.6982,0.685 -0.012,0.016 -0.021,0.019 -0.033,0.035 -0.3282,0.4162 -0.7719,0.9176 -1.2683,1.4428 1.5842,2.7289 3.0308,5.1617 3.7583,6.2131 7.0599,1.8566 14.467,2.8547 22.1124,2.8547 7.0567,0 13.9093,-0.8651 20.4753,-2.4549 7.318,-5.7688 13.9211,-16.3426 15.0067,-18.1043 z m -45.1925,26.7634 c 0.1345,-0.1667 0.244,-0.269 0.3558,-0.3779 -0.8102,0.7253 -1.5771,1.3345 -1.6904,1.4164 l 0.06,-0.044 c 0.5971,-0.4376 0.9628,-0.7339 1.275,-0.9943 z m 0.3558,-0.3779 c 0.1161,-0.1041 0.2236,-0.1989 0.3401,-0.3071 -0.055,0.029 -0.1958,0.1665 -0.3401,0.3071 z m 91.7924,-24.9449 c -0.093,0.1131 -10.2209,12.2793 -28.4138,16.8207 -0.8109,1.3572 -4.8658,7.9836 -10.5369,14.1871 16.6925,-5.8387 31.0471,-16.6297 41.2994,-30.6277 z m -96.4103,29.4832 c -0.1881,0.145 -0.9099,0.7339 -1.2284,0.9877 0.7555,0.2794 1.5081,0.5652 2.2734,0.8241 -0.3314,-0.561 -0.6959,-1.2064 -1.045,-1.8118 z"
     id="ellipse1660"
     inkscape:connector-curvature="0"
     sodipodi:nodetypes="ccccccccccccccscccccccccccccccccccccccccscccccccsccccccccccccccccccccccccccccccccccccccccccccccccccccccccccccccccccccccccccccccccccccccccsccccccccccccccccccccccccccccccccccccccccccccccccccccccccccccsccccccccccccccccccccccccscccccccccccccsccccccccccccccccccccc" />
  <path
     style="fill:#ff9601;fill-opacity:1;stroke-width:1"
     id="path1665"
     d="m 233.4821,124.47011 c -0.2574,-0.39107 -0.468,-0.4715 -1.1499,-0.15701 -0.6785,0.31437 -3.4263,2.2763 -4.3923,2.66738 -0.966,0.39446 -1.6749,-0.10295 -1.7014,-0.49798 -0.023,-0.39107 0.6014,-2.5874 1.1499,-4.13178 0.5515,-1.54439 1.3104,-3.26932 1.1265,-3.94784 -0.1841,-0.68192 -0.6554,-0.65499 -1.0465,-0.54809 -0.391,0.10294 -1.2034,3.16241 -1.6749,3.94445 -0.4714,0.78542 -0.6519,2.32991 -1.043,2.48727 -0.3944,0.15702 -0.7623,-0.26052 -0.7623,-0.26052 0,0 0.3675,-3.21932 0.5784,-4.18178 0.2104,-0.96949 0.548,-3.45337 0.1304,-4.05825 -0.4179,-0.60194 -1.0728,-0.13055 -1.2534,0.0803 -0.1839,0.20702 -0.7991,6.90312 -0.9964,7.36433 -0.1972,0.45476 -0.5381,0.33745 -0.7688,0.1672 -0.2375,-0.1672 -0.2375,-1.99914 -0.2909,-3.4631 -0.053,-1.46734 0.3411,-3.61027 0.027,-4.26526 -0.3145,-0.65499 -1.0195,-0.47139 -1.4409,-0.10294 -0.418,0.36787 -0.3645,7.34769 -0.7286,8.47408 -0.3679,1.12298 -0.6284,2.03591 -0.9963,1.93546 -0.3645,-0.10748 -0.916,-2.22292 -1.8285,-2.77485 -0.9159,-0.54798 -1.5978,-0.5749 -1.7515,-0.077 -0.157,0.49458 0.2341,0.85907 0.7021,2.37992 0.4748,1.51746 0.3944,3.32277 0.3679,3.58037 -0.027,0.2639 0.027,2.2528 0.2374,3.5833 0.207,1.3339 0.6286,1.3069 0.2875,2.2264 -0.341,0.9124 -1.0999,2.2229 -2.8783,3.4228 -1.7784,1.2034 -4.0282,2.2529 -5.3352,2.8249 -1.3069,0.5784 -1.5179,0.5784 -1.5179,0.5784 0,0 -1.3571,1.4105 -2.6138,0.3109 -1.18,-1.0327 -10.4596,-2.5236 -12.7094,-3.0852 -1.6749,-0.4181 -3.2425,-2.1965 -4.9708,-3.032 -1.725,-0.8389 -2.7679,-1.464 -3.8678,-1.464 -1.0999,0 -0.1571,0.05 -2.7209,-0.1604 -2.5638,-0.207 -3.2959,0.9429 -4.5498,0.6284 -1.2534,-0.3109 -2.8248,-0.7319 -3.6103,-0.418 -0.782,0.3141 -2.2463,0.6286 -2.2463,0.6286 l -0.103,-0.9964 c 0,0 1.043,-0.4145 1.932,-1.775 0.8893,-1.3604 0.3645,-3.2458 0.8893,-4.2888 0.5217,-1.04636 0.4682,-2.51381 0.6285,-4.18524 0.1203,-1.29709 -0.2139,-2.23319 -0.3577,-2.86805 0.134,-0.0803 0.261,-0.16381 0.3744,-0.25069 0.1707,-0.13688 0.3041,-0.28066 0.3812,-0.39447 0.081,-0.1138 0.1075,-0.19378 0.1108,-0.19073 0,0 -0.046,0.0701 -0.1471,0.15703 -0.097,0.0871 -0.2507,0.19377 -0.4381,0.28744 -0.1,0.0498 -0.2138,0.10295 -0.3276,0.14717 -0.014,-0.0837 -0.017,-0.16379 -0.014,-0.23404 0.023,-0.60195 0.2875,-1.02288 0.1271,-2.59079 -0.014,-0.15058 -0.044,-0.31743 -0.081,-0.49459 0.017,-0.0294 0.127,-0.20701 0.2374,-0.518 0.056,-0.17036 0.1108,-0.38123 0.1305,-0.62512 0.023,-0.24379 0.011,-0.5214 -0.053,-0.80557 -0.1172,-0.57151 -0.4346,-1.16315 -0.8492,-1.65129 -0.391,-0.45781 -0.8624,-0.82909 -1.3137,-1.09652 -0.023,-0.0407 -0.044,-0.0735 -0.056,-0.0939 -0.017,-0.0237 -0.041,-0.0634 -0.074,-0.1172 0.2742,0.11086 0.5514,0.24729 0.8257,0.4111 0.4012,0.24084 0.7854,0.52841 1.1033,0.81246 0.3139,0.29084 0.5617,0.58181 0.7119,0.80896 0.1569,0.22421 0.2138,0.38123 0.2173,0.38123 0,0 -0.044,-0.16052 -0.1737,-0.4077 -0.1271,-0.2439 -0.3444,-0.56823 -0.6383,-0.89935 -0.2974,-0.32421 -0.6687,-0.65533 -1.0696,-0.9326 -0.3979,-0.27422 -0.8325,-0.49447 -1.2402,-0.61856 -0.4346,-0.71881 -1.1799,-1.8987 -1.8854,-2.47021 -0.9659,-0.78542 -5.7929,-2.37687 -11.8636,0.76541 -3.0986,1.60468 -3.8173,2.65063 -4.0316,3.73731 -0.9292,0.19717 -2.0659,0.74221 -3.4499,2.05265 -2.2563,2.12619 -2.3431,6.40175 -2.3603,10.15535 -0.094,0.35759 -0.177,0.74527 -0.2471,1.15331 -0.036,0.2071 -0.07,0.421 -0.097,0.6417 -0.027,0.214 -0.053,0.4347 -0.074,0.655 -0.084,0.8825 -0.1272,1.7682 -0.2876,2.5438 -0.081,0.3875 -0.1873,0.7452 -0.3174,1.0528 -0.1271,0.311 -0.2806,0.5715 -0.4214,0.7791 -0.2875,0.4111 -0.5249,0.6152 -0.5215,0.6152 0,0 0.2473,-0.1875 0.5616,-0.5853 0.1571,-0.2006 0.3278,-0.4548 0.478,-0.7624 0.1506,-0.3109 0.2807,-0.6687 0.3811,-1.0596 0.2072,-0.782 0.291,-1.6814 0.4043,-2.554 0.03,-0.2173 0.06,-0.4279 0.094,-0.6452 0.014,-0.067 0.023,-0.1403 0.037,-0.2041 -0.017,1.2536 -0.067,2.397 -0.2375,3.2993 -0.1167,0.2104 -0.2408,0.4445 -0.3709,0.7021 -0.2409,0.488 -0.4915,1.0464 -0.7089,1.638 -0.023,0.041 -0.049,0.077 -0.077,0.1138 -0.2605,0.4013 -0.5548,0.8625 -0.859,1.3271 -0.341,0.2575 -0.5883,0.3444 -0.5848,0.3477 0,0 0.2071,-0.063 0.5215,-0.254 -0.368,0.5582 -0.7486,1.123 -1.1131,1.6077 -0.341,0.4612 -0.6653,0.8492 -0.9293,1.093 -0.1305,0.1271 -0.2438,0.2173 -0.3276,0.2708 -0.087,0.057 -0.137,0.077 -0.137,0.077 0,0 0.053,-0.02 0.1437,-0.063 0.091,-0.05 0.2105,-0.1304 0.3543,-0.2437 0.2875,-0.2273 0.6486,-0.5952 1.0263,-1.0329 0.046,-0.053 0.097,-0.1108 0.1438,-0.1672 -0.2208,0.4646 -0.4214,0.966 -0.5951,1.4374 -0.2473,0.1639 -0.4146,0.2139 -0.4111,0.2174 0,0 0.07,-0.02 0.1937,-0.07 0.056,-0.026 0.1237,-0.06 0.1973,-0.1007 0,0.011 -0.011,0.014 -0.011,0.024 -0.321,0.4213 -0.5985,0.7721 -0.7889,1.0096 -0.2041,0.1539 -0.3311,0.2408 -0.3311,0.2408 0,0 0.094,-0.046 0.2472,-0.1404 -0.1063,0.1371 -0.1737,0.2139 -0.1737,0.2139 0,0 0.097,-0.097 0.2542,-0.2605 0.043,-0.026 0.091,-0.053 0.1403,-0.087 -0.067,0.081 -0.1271,0.1541 -0.1874,0.2208 -0.2507,0.2772 -0.4279,0.4179 -0.4279,0.421 0,0 0.1904,-0.1237 0.4647,-0.3846 0.084,-0.081 0.1771,-0.1737 0.2777,-0.2772 0.017,-0.011 0.094,-0.041 0.2071,-0.1007 0,0 0.011,-0.011 0.014,-0.011 -0.041,0.1235 -0.081,0.2373 -0.1138,0.341 -0.09,0.06 -0.1771,0.1137 -0.2541,0.1604 -0.2242,0.1368 -0.3744,0.1971 -0.3744,0.1971 0,0 0.157,-0.041 0.3978,-0.1471 0.05,-0.023 0.1007,-0.049 0.1537,-0.077 -0.056,0.056 -0.1075,0.1108 -0.157,0.1536 -0.1938,0.1909 -0.3174,0.2909 -0.3209,0.2875 0,0 0.017,-0.011 0.047,-0.027 -0.077,0.067 -0.1203,0.103 -0.1203,0.103 0,0 0.1438,-0.087 0.3612,-0.2541 0.056,-0.037 0.1138,-0.087 0.1771,-0.1339 0,0 -0.011,0.014 -0.011,0.023 -0.097,0.2708 -0.1638,0.4382 -0.1638,0.4382 0,0 0.03,-0.053 0.081,-0.1541 0.027,-0.03 0.1569,-0.1874 0.3846,-0.4078 0.1805,-0.1771 0.4243,-0.3876 0.7118,-0.6118 -0.4847,0.6388 -0.8055,1.1 -0.8091,1.1 0,0 0.1606,-0.1805 0.418,-0.4714 -0.204,0.3242 -0.2672,0.5484 -0.2706,0.5451 0,0 0.094,-0.2341 0.3409,-0.5583 0.1201,-0.1639 0.2839,-0.3445 0.4846,-0.5314 0.044,-0.037 0.091,-0.081 0.1369,-0.1203 -0.056,0.091 -0.1109,0.1806 -0.1672,0.2605 -0.2173,0.3444 -0.4112,0.6418 -0.5582,0.8459 -0.1472,0.204 -0.2375,0.3242 -0.2375,0.3242 0,0 0.081,-0.084 0.2138,-0.234 -0.041,0.056 -0.067,0.087 -0.067,0.087 0,0 0.1339,-0.1304 0.3444,-0.3542 0.2104,-0.2271 0.4945,-0.545 0.8159,-0.9125 0.2138,-0.2439 0.4445,-0.5113 0.6819,-0.7756 0.011,0 0.017,-0.011 0.024,-0.014 0.5583,-0.2174 1.1533,-0.4779 1.7116,-0.8159 -0.4042,0.3111 -0.779,0.5652 -1.063,0.7388 -0.321,0.1973 -0.5284,0.2944 -0.5284,0.2944 0,0 0.2138,-0.077 0.5514,-0.2473 0.3145,-0.157 0.7321,-0.3979 1.1868,-0.702 0.1109,-0.041 0.2605,-0.1 0.438,-0.1903 0.3846,-0.1939 0.8826,-0.5285 1.3772,-0.9931 0.2776,-0.2574 0.5514,-0.5513 0.809,-0.8723 -0.1506,0.2439 -0.2974,0.4579 -0.4244,0.6319 -0.2841,0.391 -0.4813,0.6084 -0.4813,0.6084 0,0 0.2104,-0.204 0.5216,-0.575 0.3109,-0.3743 0.7118,-0.9227 1.0998,-1.588 0.3876,-0.6687 0.7623,-1.4507 1.043,-2.2597 0.2639,-0.759 0.4411,-1.541 0.5082,-2.243 0.023,0.2472 0.027,0.4847 0.011,0.7119 -0.033,0.5347 -0.1736,0.9827 -0.3007,1.2869 -0.1305,0.304 -0.2374,0.4747 -0.2374,0.4747 0,0 0.1202,-0.157 0.2772,-0.4581 0.1536,-0.2944 0.3311,-0.7388 0.4043,-1.2834 0.077,-0.5484 0.044,-1.1765 -0.063,-1.7986 -0.053,-0.3277 -0.1203,-0.6519 -0.1938,-0.966 0.06,-0.49454 0.1138,-0.99624 0.1736,-1.48743 l 0.1674,0.50137 c 0.9424,2.82486 2.4068,2.92496 2.9283,4.49626 0.5216,1.5679 0.7321,3.9748 1.0464,4.9173 0.3141,0.9429 0.3141,1.1499 0.103,1.7783 -0.2105,0.6286 -1.882,2.1964 -1.882,2.1964 l -1.0896,0.3778 c -4.1152,0.2075 -13.7857,1.2668 -18.1584,1.277 -0.1805,0 -1.2401,0.1938 -1.4139,0.1938 -3.2091,0 -3.9846,0.1173 -3.9846,0.1369 v 0 c -2.1895,-1.6783 -10.7239,-7.4378 -13.1372,-9.5538 -2.8916,-2.5339 -7.4748,-7.28098 -8.0429,-8.1164 -0.5681,-0.83249 -1.2903,-1.6445 -1.5409,-2.68751 -0.2508,-1.0464 -1.4943,-4.43937 -2.1262,-4.8672 -0.6319,-0.43463 -1.1633,-0.20748 -1.1633,-0.20748 0,0 -3.1457,-2.21306 -4.0949,-2.34655 -0.3342,-0.0497 -0.7222,-0.13043 -1.1,-0.19378 -2.2798,-1.07299 -4.9574,-1.32368 -7.5482,-0.49798 -5.4555,1.73477 -8.4673,7.5649 -6.7325,13.01357 1.7382,5.45543 7.5616,8.47053 13.0171,6.73583 1.3403,-0.4278 2.5372,-1.1034 3.5499,-1.9589 1.1533,-0.4745 2.2763,-0.9092 2.7011,-0.9126 0.8792,0 1.541,1.1299 2.8548,1.2903 1.3139,0.157 1.7382,-0.06 1.9624,-0.046 0.2207,0.011 5.295,4.5665 7.411,8.454 2.116,3.881 6.2977,9.7942 8.7884,11.7467 0.2041,0.1604 0.3945,0.3112 0.575,0.4514 l -0.2973,0.7624 c 0.6918,0.9693 1.0999,1.4639 1.6347,2.0692 0.6284,0.7021 3.343,0.3244 3.5499,0.3278 0.8493,-0.1506 9.9016,0.2105 15.2467,-0.1674 v 0 0 l 0.1605,-0.011 c 1.6145,0.4646 2.3401,18.4959 2.4471,20.1305 0.157,2.4604 1.2034,4.2355 1.4105,5.4923 0.207,1.2535 0,3.1355 -0.053,4.1319 -0.049,0.9928 -0.4681,1.8318 -0.4681,1.8318 0,0 -1.3069,3.5568 -1.8319,4.8638 -0.5214,1.3069 -0.3645,1.3605 -1.357,2.2464 -0.9963,0.8923 -1.9354,1.6248 -2.6708,2.9818 -0.7286,1.3604 -1.8819,6.2242 -2.1429,9.467 -0.2639,3.2458 0.1029,3.5603 0.3145,5.2852 0.2104,1.7284 -0.525,1.4105 -0.6285,2.9283 -0.103,1.5174 0.993,2.8784 0.993,2.8784 0,0 -4.0784,3.8708 -5.2818,5.0742 -1.1999,1.2 -2.039,2.0925 -2.039,2.0925 0,0 -0.4179,-0.1075 -0.7855,0.2575 -0.3644,0.3679 -1.5174,1.6248 -1.5174,1.6248 0,0 -4.5497,4.3957 -7.2672,7.2137 -2.7208,2.8283 -5.6492,4.5028 -5.6492,4.5028 0,0 -2.039,-0.1064 -2.7744,-0.214 -0.7319,-0.1 -0.886,-0.049 -1.5173,0.5249 -0.6252,0.575 -4.3924,3.0354 -5.7499,3.4533 -1.3604,0.418 -1.0998,-0.468 -2.3534,0.993 -1.2568,1.4644 -1.9889,3.0352 -1.6748,4.8137 0.311,1.7751 0.2605,4.3923 2.0894,5.7532 1.8319,1.3604 4.9707,7.899 7.8991,6.8526 2.9283,-1.0498 2.7208,-2.0923 3.0354,-4.2922 0.3139,-2.1929 -0.6285,-2.7179 1.7782,-5.3317 2.4069,-2.6174 2.0926,-1.9889 3.557,-3.139 1.4639,-1.1532 2.2998,-1.2533 2.7208,-2.3033 0.418,-1.043 5.1247,-5.4387 8.6812,-7.5311 3.5567,-2.0929 10.1455,-5.5423 12.6558,-7.2172 2.5138,-1.6748 2.9317,-1.9855 2.9317,-1.9855 0,0 -2.6172,6.7993 -5.86,13.4919 -3.2424,6.6956 -5.1247,14.1233 -5.8602,14.7517 -0.7286,0.6285 -7.9996,5.0178 -10.774,8.317 -2.7713,3.2929 -5.6462,8.2102 -8.4706,11.5561 -2.8248,3.3493 -3.9747,4.3957 -3.9747,4.3957 0,0 -0.1571,-0.053 -1.989,-0.3143 -1.8319,-0.2606 -3.5568,-0.1537 -4.6566,0.7318 -1.0966,0.8892 -1.3571,1.3605 -1.568,2.7181 -0.2105,1.3637 -0.6785,4.974 -0.418,7.6414 0.2605,2.6645 -2.1429,7.5282 -1.3069,12.4488 0.8356,4.9139 1.3604,4.9443 3.9748,5.8067 2.614,0.8591 5.9102,-0.9964 6.5386,-4.4491 0.6285,-3.4499 -0.4214,-3.7639 0.8356,-7.3208 1.2533,-3.5602 2.0923,-4.8673 3.1388,-5.3886 1.0464,-0.5251 1.9353,-0.8891 2.2498,-2.1429 0.314,-1.2569 0.1571,-2.0424 0,-2.3034 -0.157,-0.2639 7.6352,-7.7921 9.7276,-9.5205 2.0924,-1.7249 9.2865,-7.6352 11.5594,-9.3865 2.2763,-1.7515 2.6138,-2.9015 3.1889,-3.3228 0.5784,-0.418 1.2034,-0.8356 4.5527,-5.1248 3.3463,-4.2922 11.8204,-15.4841 14.3342,-19.4585 2.5104,-3.9749 1.461,-5.0207 2.925,-4.7102 1.4639,0.3175 2.4103,-0.4145 2.4103,-0.4145 0,0 4.4962,-9.731 5.0173,-13.4948 0.5249,-3.7675 -0.311,-7.1137 1.0464,-8.9956 1.3639,-1.8854 1.0498,-3.3493 1.571,-3.8708 0.518,-0.5215 1.4639,-2.457 1.2534,-3.8208 -0.207,-1.3605 -0.207,-1.6714 0.2105,-2.143 0.4181,-0.4714 0.7286,-1.5708 0.9395,-2.6138 0.2105,-1.0495 0.4213,-6.8527 1.3603,-9.467 0.9425,-2.6174 0.6286,-3.6603 0.6286,-4.7103 0,-1.0498 -0.5215,-2.1964 0,-3.2422 0.5215,-1.0466 0.7285,-2.9284 1.2569,-3.4534 0.5214,-0.5215 2.2999,-10.0419 3.9713,-14.3308 1.6783,-4.2889 2.1998,-6.2777 2.7243,-7.4276 0.5216,-1.1499 1.461,-1.9888 3.9714,-2.9284 2.5104,-0.9424 3.7707,-1.6714 5.1277,-1.5678 1.3605,0.1029 1.9889,0.5214 4.0817,0.1029 2.0895,-0.4181 4.2889,-1.0466 4.2889,-1.0466 l -0.264,-1.4137 c 0,0 2.3401,-0.5451 3.4028,-1.0431 1.3605,0.311 2.6609,-0.9861 4.4929,-2.136 1.8318,-1.15 4.3957,-4.4561 5.9136,-7.5415 1.5178,-3.0853 1.307,-4.4993 1.7784,-4.6566 0.4714,-0.1571 2.5104,-2.1965 3.0853,-3.8179 0.575,-1.6213 1.414,-2.9783 1.8286,-3.2958 0.4213,-0.3145 3.2192,-2.61395 4.4226,-3.4229 1.2034,-0.81247 1.6715,-1.72493 1.4105,-2.1194 v 0 z m -82.9352,6.83936 v 0 -0.05 c 0.011,-0.033 0.017,-0.067 0.023,-0.1 -0.011,0.053 -0.014,0.097 -0.023,0.1505 v 0 z m -1.6513,3.1791 v 0 c -0.037,0.057 -0.074,0.1109 -0.1138,0.1672 -0.097,0.1203 -0.1973,0.2375 -0.3076,0.3542 -0.204,0.1839 -0.4312,0.3911 -0.6889,0.6251 -0.2408,0.2173 -0.5047,0.4479 -0.7853,0.6853 l -0.2105,0.1771 c -0.077,0.06 -0.1437,0.1202 -0.2174,0.1737 -0.1471,0.1168 -0.3006,0.2272 -0.4547,0.3312 -0.1772,0.1202 -0.3542,0.234 -0.5382,0.3409 0.033,-0.026 0.067,-0.053 0.1007,-0.074 0.3041,-0.2305 0.5985,-0.4679 0.8757,-0.702 0.8188,-0.6319 1.7181,-1.3506 2.4805,-2.3033 -0.044,0.073 -0.094,0.1505 -0.1404,0.2242 v 0 z m -4.6567,1.1298 v 0 c -0.056,0.077 -0.1173,0.1536 -0.1738,0.234 0.067,-0.1029 0.1305,-0.1972 0.1938,-0.2875 -0.011,0.02 -0.014,0.033 -0.021,0.053 z m -2.0895,3.286 v 0 c -0.017,0.023 -0.033,0.046 -0.049,0.07 -0.011,0.011 -0.02,0.017 -0.029,0.021 -0.014,0.011 -0.027,0.017 -0.037,0.021 0.047,-0.047 0.091,-0.097 0.1404,-0.1471 -0.011,0.014 -0.017,0.026 -0.023,0.037 z m -0.1335,0.1305 v 0 c 0.011,0 0.011,-0.011 0.017,-0.011 -0.014,0.011 -0.023,0.023 -0.037,0.03 z m 0.06,0.1074 v 0 c 0.037,-0.041 0.077,-0.084 0.1139,-0.127 0.049,-0.033 0.097,-0.067 0.1472,-0.099 0,0.011 0,0.014 -0.011,0.021 -0.1304,0.1168 -0.2271,0.1908 -0.2541,0.2075 v 0 z m 0.398,-0.2041 v 0 c 0.087,-0.056 0.1804,-0.1167 0.2777,-0.1938 -0.047,0.067 -0.097,0.1305 -0.1438,0.1904 -0.1,0.1237 -0.1972,0.2409 -0.2908,0.3479 0,0 0,0 0,0 0.049,-0.1108 0.1029,-0.2272 0.1604,-0.3479 z m -0.1305,0.5717 v 0 c -0.2006,0.234 -0.3145,0.3979 -0.341,0.438 0.033,-0.07 0.077,-0.157 0.1271,-0.2639 0.017,-0.037 0.036,-0.081 0.056,-0.1237 0.067,-0.056 0.134,-0.1168 0.2041,-0.1805 0.021,-0.017 0.041,-0.033 0.06,-0.049 0.041,-0.023 0.081,-0.046 0.1237,-0.074 -0.087,0.091 -0.1638,0.1772 -0.2305,0.2541 v 0 z m 5.6595,-3.4196 v 0 c -0.4547,0.4848 -0.9228,0.8459 -1.2869,1.0632 -0.1202,0.077 -0.2305,0.1338 -0.3242,0.177 0.011,0 0.017,-0.011 0.023,-0.014 0.4945,-0.3375 1.0297,-0.752 1.5144,-1.2068 0.1604,-0.1472 0.311,-0.2977 0.4578,-0.4513 -0.1271,0.1505 -0.2541,0.2943 -0.3846,0.4312 z m 23.4701,-22.05265 v 0 c 0.418,0.44106 0.7486,0.97626 0.8992,1.5041 0.077,0.26404 0.1109,0.52501 0.1109,0.75896 0,0.23406 -0.034,0.44797 -0.077,0.61868 -0.077,0.31098 -0.1702,0.49447 -0.1872,0.53135 -0.2744,-1.25354 -1.08,-3.11241 -1.5578,-4.11515 0.2806,0.20068 0.5618,0.43123 0.8124,0.70206 z"
     class="cls-1"
     inkscape:connector-curvature="0"
     inkscape:export-xdpi="191.99998"
     inkscape:export-ydpi="191.99998" />
  <path
     inkscape:transform-center-y="54.546479"
     inkscape:transform-center-x="11.616988"
     style="font-style:normal;font-variant:normal;font-weight:800;font-stretch:normal;font-size:22.66666794px;line-height:1.33333337px;font-family:Montserrat;-inkscape-font-specification:'Montserrat Ultra-Bold';letter-spacing:0px;word-spacing:0px;fill:#ffffff;fill-opacity:1;stroke:none"
     d="m 297.1082,272.02197 -2.481,3.63 6.9831,4.769 -10.9316,1.0168 -2.084,3.0511 13.104,8.9477 2.4799,-3.6327 -6.9838,-4.7672 10.9317,-1.0167 2.0839,-3.0511 z m -251.8851,-114.6869 -15.3509,-4.0132 -1.1355,4.3419 5.9857,1.5648 -1.5462,5.9214 -5.9883,-1.5639 -1.1355,4.342 15.3508,4.0132 1.1355,-4.342 -5.7669,-1.5081 1.548,-5.9204 5.7678,1.5063 z m 242.671,127.9657 -8.0923,9.452 12.0538,10.3192 8.2853,-9.6775 -2.636,-2.2554 -5.3949,6.3029 -2.2031,-1.8863 4.5837,-5.3568 -2.5476,-2.1808 -4.5855,5.3559 -2.0319,-1.7395 5.2028,-6.0792 z M 25.699,169.18357 l -0.6373,4.5348 2.8795,1.6644 -0.9347,6.6422 -3.2267,0.8067 -0.6499,4.6233 16.6917,-4.749 0.615,-4.3775 z m 5.3351,7.9609 4.7435,2.7267 -5.3104,1.3143 z m 250.0485,120.1433 c -1.2146,-0.1415 -2.422,0.01 -3.6212,0.4571 -1.1992,0.447 -2.3371,1.1793 -3.4136,2.1962 -1.2303,1.1622 -2.0903,2.4647 -2.5803,3.9046 -0.5003,1.4287 -0.5946,2.8579 -0.2825,4.2885 0.312,1.4305 1.0138,2.7224 2.1035,3.8758 1.0895,1.1533 2.3386,1.9255 3.7491,2.3184 1.4105,0.3929 2.843,0.3916 4.2974,-0.01 1.4439,-0.4079 2.7696,-1.1816 3.978,-2.323 0.8568,-0.8095 1.5952,-1.7455 2.2134,-2.8076 0.6181,-1.062 1.0319,-2.1411 1.2452,-3.2359 l -4.5125,-4.7785 -2.884,2.7251 2.9885,3.1631 c -0.3109,0.7713 -0.7783,1.4535 -1.4044,2.045 -0.6371,0.6019 -1.3325,0.9989 -2.0863,1.1913 -0.7641,0.1813 -1.518,0.1537 -2.2596,-0.081 -0.7518,-0.2459 -1.4282,-0.6872 -2.03,-1.3244 -0.9443,-0.9997 -1.3956,-2.0817 -1.3519,-3.2456 0.034,-1.1749 0.5451,-2.2284 1.5338,-3.1624 1.0875,-1.0273 2.4267,-1.4813 4.016,-1.3612 z m -242.095,-108.2028 -15.8625,-0.3571 -0.1,4.3955 8.4535,0.1913 -8.6104,6.8118 -0.085,3.6941 15.8625,0.3572 0.1005,-4.3974 -8.4526,-0.1886 8.6105,-6.8119 z m 228.4068,117.4997 -3.522,2.6318 5.0607,6.7733 -10.6722,-2.5806 -2.9594,2.2122 9.4978,12.7108 3.5228,-2.6336 -5.0615,-6.7715 10.6722,2.5805 2.9593,-2.2122 z m -228.7126,-101.1094 -15.7904,1.5474 0.7329,7.4667 c 0.1695,1.7295 0.643,3.2318 1.4209,4.5069 0.7778,1.2751 1.7963,2.2237 3.0566,2.8442 1.2602,0.6205 2.6883,0.8525 4.2825,0.6962 1.5941,-0.1562 2.9489,-0.6616 4.0647,-1.515 1.1159,-0.8534 1.9306,-1.9822 2.4461,-3.3841 0.5154,-1.4019 0.6892,-2.9661 0.5196,-4.6957 z m -3.1261,4.8148 0.2773,2.8202 c 0.1325,1.3534 -0.1452,2.4744 -0.8326,3.3617 -0.6859,0.9024 -1.7066,1.4197 -3.06,1.5524 -1.3535,0.1326 -2.4525,-0.1772 -3.3006,-0.9292 -0.8466,-0.7369 -1.3376,-1.7829 -1.4703,-3.1364 l -0.2755,-2.8193 z m 218.0559,106.2181 -3.8073,2.3772 8.4058,13.458 3.8056,-2.3779 z m -213.1655,-94.2443 -15.5015,3.3813 1.8248,8.3721 c 0.4509,2.067 1.1659,3.5652 2.1425,4.4967 0.9764,0.9315 2.1416,1.2498 3.4998,0.9534 0.9301,-0.2028 1.6657,-0.6261 2.2058,-1.2698 0.5548,-0.6469 0.8919,-1.448 1.0088,-2.4014 0.4844,0.5903 1.0535,0.9999 1.7066,1.2286 0.6712,0.24 1.3752,0.2808 2.1133,0.1197 1.24,-0.2706 2.1088,-1.0012 2.607,-2.1924 0.5126,-1.1946 0.5538,-2.7825 0.1223,-4.7609 z m 208.1879,99.9238 c -0.7345,-0.2821 -1.5351,-0.3955 -2.401,-0.3411 -1.1616,0.059 -2.3794,0.42 -3.6529,1.0825 l -6.4329,3.3485 7.3216,14.0757 3.9817,-2.0723 -1.9465,-3.7398 2.1723,-1.1306 4.5007,2.412 4.2624,-2.2171 -5.3379,-2.8451 c 0.6616,-0.8892 1.0311,-1.8306 1.1097,-2.8255 0.085,-1.0151 -0.1374,-2.0328 -0.6675,-3.0516 -0.551,-1.059 -1.2834,-1.8435 -2.1974,-2.3559 -0.2303,-0.1314 -0.4673,-0.246 -0.7121,-0.34 z m -210.4078,-94.8933 0.6556,3.0118 c 0.3221,1.4765 -0.011,2.3226 -1.0002,2.5384 -1.004,0.2191 -1.667,-0.4089 -1.989,-1.8853 l -0.6574,-3.0127 z m 208.305,98.6354 c 0.4039,0.205 0.7349,0.5538 0.9913,1.0465 0.342,0.6569 0.399,1.2731 0.1715,1.8511 -0.2343,0.5647 -0.7597,1.0621 -1.5774,1.4876 l -2.2128,1.1486 -2.1437,-4.1217 2.2109,-1.1494 c 0.8178,-0.4255 1.5285,-0.5669 2.1324,-0.4212 0.1507,0.037 0.2934,0.09 0.4277,0.1587 z m -214.3304,-97.3207 0.8037,3.6761 c 0.3349,1.5354 -0.023,2.417 -1.0708,2.6458 -1.0482,0.2286 -1.7406,-0.4238 -2.0756,-1.9592 l -0.801,-3.6771 z m 197.7514,95.536 c -0.4279,-0.195 -0.8846,-0.193 -1.3638,-0.01 -0.478,0.1857 -0.8194,0.4952 -1.0249,0.9302 -0.1859,0.4319 -0.1898,0.8937 9e-4,1.387 0.1907,0.4934 0.5002,0.8348 0.9302,1.025 0.4388,0.1703 0.8984,0.1627 1.3776,-0.023 0.4782,-0.1857 0.8153,-0.4864 1.0119,-0.9018 0.2086,-0.4335 0.2114,-0.8988 0.021,-1.3922 -0.1907,-0.4933 -0.5087,-0.8332 -0.9526,-1.018 z m 5.05,2.6902 -4.1241,1.5933 3.1227,8.0772 c 0.9153,2.3679 0.4434,3.9109 -1.417,4.63 -1.8747,0.7247 -3.271,-0.098 -4.1863,-2.4661 l -3.1208,-8.0764 -4.187,1.6182 3.1719,8.2049 c 0.8498,2.1987 2.1118,3.6625 3.7871,4.392 1.6894,0.7239 3.6337,0.66 5.8326,-0.1899 2.1985,-0.85 3.6728,-2.1068 4.4222,-3.7733 0.7631,-1.672 0.7194,-3.6089 -0.1305,-5.8076 z m -189.5074,-84.4634 -17.2774,-1.5149 1.4759,4.3344 3.3193,0.1865 2.1646,6.3505 -2.5168,2.1734 1.5052,4.4208 12.7541,-11.7682 z m 179.9757,83.5061 c -0.4278,-0.195 -0.8845,-0.193 -1.3637,-0.01 -0.4781,0.1858 -0.8196,0.4953 -1.025,0.9302 -0.1859,0.432 -0.1907,0.8911 0,1.3845 0.1906,0.4934 0.5019,0.8356 0.9319,1.0257 0.4387,0.1704 0.8975,0.1645 1.3768,-0.021 0.4782,-0.1857 0.8153,-0.4864 1.0119,-0.9017 0.2085,-0.4335 0.2096,-0.8997 0.019,-1.393 -0.1906,-0.4933 -0.5068,-0.8324 -0.9508,-1.0172 z m -183.4367,-80.0287 -4.1482,3.5677 -1.3155,-3.8622 z m 7.2071,6.9618 -14.423,6.6095 5.0244,10.9638 3.2347,-1.4835 -3.154,-6.883 11.1892,-5.1278 z m 170.6835,79.7815 -4.3454,1.1231 1.49,5.7727 -5.9242,1.5304 -1.4926,-5.7716 -4.3446,1.1213 3.968,15.3633 4.3454,-1.1231 -1.5469,-5.9917 5.9259,-1.5296 1.5469,5.9917 4.3455,-1.1231 z m -165.4399,-68.531 -13.7827,7.8608 5.9735,10.4734 3.091,-1.7614 -3.7505,-6.5776 10.6928,-6.0967 z m 150.8084,72.2873 -14.0588,2.0856 0.5226,3.5201 4.8208,-0.7154 1.8061,12.1757 4.4392,-0.6597 -1.8071,-12.1741 4.7999,-0.712 z m -144.7994,-61.6797 -12.9011,9.2372 2.5602,3.5752 6.8754,-4.9219 -2.7984,10.618 2.1517,3.0026 12.9003,-9.2353 -2.5595,-3.5771 -6.8754,4.9218 2.7976,-10.6161 z m 124.5112,64.9012 c -0.6285,-0.2865 -1.3209,-0.5163 -2.082,-0.6785 -1.0148,-0.2314 -2.0433,-0.3417 -3.0858,-0.3312 -1.5261,0.016 -2.8157,0.2539 -3.8688,0.718 -1.0381,0.4639 -1.8184,1.0919 -2.3393,1.8829 -0.521,0.7761 -0.7764,1.6478 -0.7668,2.6148 0.011,1.1031 0.3088,1.9767 0.8897,2.6206 0.5807,0.6439 1.2727,1.1119 2.0766,1.4059 0.8039,0.2785 1.8045,0.5413 3.0009,0.786 1.0904,0.2308 1.8775,0.4563 2.3634,0.678 0.5008,0.2063 0.7538,0.5385 0.7584,0.9918 0.01,0.8613 -0.8486,1.3005 -2.5711,1.3179 -0.9066,0.01 -1.8298,-0.1261 -2.7695,-0.4037 -0.9397,-0.2775 -1.7678,-0.6468 -2.4826,-1.1084 l -1.4381,3.324 c 0.7608,0.5212 1.7474,0.9344 2.9596,1.2391 1.2121,0.305 2.4591,0.4508 3.7435,0.4377 1.5111,-0.015 2.793,-0.2557 3.8461,-0.7197 1.053,-0.4792 1.8393,-1.106 2.3603,-1.882 0.5211,-0.776 0.7775,-1.6408 0.7675,-2.5929 -0.011,-1.103 -0.314,-1.9669 -0.9098,-2.5955 -0.5808,-0.6439 -1.2737,-1.1058 -2.0775,-1.3848 -0.7886,-0.2946 -1.7877,-0.5643 -2.9992,-0.8088 -1.0751,-0.2158 -1.8567,-0.4275 -2.3424,-0.6342 -0.4855,-0.207 -0.7306,-0.5215 -0.735,-0.9446 0,-0.423 0.1975,-0.765 0.6029,-1.0259 0.4052,-0.2762 1.0526,-0.4185 1.9441,-0.4275 1.4204,-0.014 2.8907,0.3788 4.4101,1.1793 l 1.3487,-3.3454 c -0.1937,-0.1114 -0.3953,-0.2164 -0.6039,-0.3137 z m -111.4212,-47.7949 -16.4566,5.4766 3.0763,3.3897 3.1209,-1.1489 4.5088,4.9699 -1.4442,2.995 3.1372,3.4584 7.0285,-15.8677 z m 98.5645,47.1958 -4.4663,-0.4344 -0.5773,5.9337 -6.0906,-0.5911 0.5756,-5.9343 -4.4662,-0.4345 -1.5335,15.7922 4.4662,0.4343 0.5982,-6.158 6.0905,0.591 -0.598,6.158 4.4678,0.4352 z m -100.3579,-42.6299 -2.3899,4.9229 -2.7421,-3.0206 z m 13.2657,6.935 c -0.6783,-0.3619 -1.3852,-0.6313 -2.1196,-0.803 -1.4458,-0.3484 -2.8657,-0.3013 -4.2619,0.1395 -1.3963,0.4408 -2.6199,1.2566 -3.6694,2.4466 -1.0496,1.1898 -1.7066,2.5042 -1.9697,3.9445 -0.263,1.4405 -0.1354,2.8625 0.3808,4.2648 0.5374,1.4009 1.4293,2.6507 2.6759,3.7502 1.0878,0.9596 2.2383,1.6327 3.4506,2.0171 1.2126,0.3844 2.4275,0.4689 3.6451,0.2534 l -0.4332,-3.8293 c -1.5902,0.2496 -2.9339,-0.1088 -4.0332,-1.0784 -0.6459,-0.5698 -1.1004,-1.2221 -1.3604,-1.9551 -0.2487,-0.7232 -0.2886,-1.4637 -0.122,-2.2236 0.1878,-0.7612 0.5763,-1.4766 1.1665,-2.1449 0.5898,-0.6687 1.2447,-1.1389 1.9665,-1.409 0.7432,-0.2714 1.489,-0.3279 2.2375,-0.1714 0.7598,0.1665 1.4634,0.5334 2.1094,1.1031 1.0992,0.9696 1.6235,2.2596 1.5744,3.8686 l 3.851,-0.048 c 0.062,-1.2351 -0.1723,-2.4312 -0.7051,-3.5861 -0.5326,-1.1551 -1.3432,-2.2113 -2.4311,-3.1709 -0.6234,-0.5498 -1.2737,-1.0067 -1.9521,-1.3684 z m 67.2215,33.1074 c -0.6126,-0.2616 -1.2734,-0.4671 -1.9828,-0.6183 -1.6256,-0.3465 -3.1625,-0.3124 -4.611,0.1049 -1.4308,0.4057 -2.6477,1.1424 -3.6482,2.2115 -1.0003,1.0692 -1.6654,2.3807 -1.9963,3.9325 -0.3307,1.5518 -0.2568,3.02 0.2206,4.4041 0.4775,1.3843 1.2846,2.5609 2.4223,3.5296 1.1557,0.957 2.5465,1.6088 4.1722,1.9554 1.4188,0.3025 2.7506,0.3232 3.9957,0.063 1.245,-0.2599 2.3454,-0.7819 3.3007,-1.5671 l -2.2555,-3.1229 c -1.2634,0.9976 -2.6116,1.3444 -4.0452,1.0389 -0.8424,-0.1796 -1.5557,-0.5252 -2.1418,-1.0367 -0.5716,-0.5081 -0.972,-1.1359 -1.1996,-1.8797 -0.2098,-0.7554 -0.2222,-1.5678 -0.036,-2.4399 0.1857,-0.872 0.5284,-1.6028 1.0245,-2.1924 0.5144,-0.6011 1.1359,-1.0162 1.8649,-1.2471 0.7438,-0.2277 1.5366,-0.2521 2.379,-0.072 1.4336,0.3056 2.5231,1.172 3.2699,2.5979 l 3.332,-1.9327 c -0.552,-1.1065 -1.3433,-2.0328 -2.3742,-2.7779 -0.5154,-0.3725 -1.079,-0.6894 -1.6913,-0.9512 z m -60.1805,-26.8739 -9.0794,13.0118 3.6821,2.569 3.5407,-5.0745 5.0197,3.5007 -3.5432,5.0755 3.6829,2.5672 8.4526,-12.1168 -2.373,15.7551 4.2997,2.1465 7.1527,-7.2209 -1.5962,9.996 4.2997,2.1465 11.0569,-11.2518 -2.3737,7.1625 c -0.742,2.2376 -0.6985,4.169 0.1308,5.7972 0.8437,1.6328 2.3842,2.822 4.6218,3.5639 2.2375,0.7419 4.1742,0.7075 5.8121,-0.1027 1.6521,-0.8054 2.8502,-2.3283 3.5922,-4.5658 l 2.7673,-8.3462 -4.1948,-1.3925 -2.7265,8.2188 c -0.7989,2.4096 -2.1454,3.3008 -4.0388,2.6731 -1.9077,-0.6325 -2.4604,-2.1532 -1.6615,-4.5629 l 2.7248,-8.2196 -4.261,-1.412 -0.1199,0.3618 -3.472,-1.7349 -7.5469,7.6573 1.7065,-10.5726 -3.691,-1.8432 -7.5274,7.5673 1.6665,-10.4941 -3.8377,-1.9167 0.2141,-0.3059 -3.6804,-2.5683 -3.411,4.8889 -5.0197,-3.5006 3.411,-4.8889 z"
     id="path1671"
     inkscape:connector-curvature="0" />
  <g
     inkscape:transform-center-y="-52.545675"
     inkscape:transform-center-x="-57.696704"
     aria-label="WEIBLICHER"
     transform="rotate(48.981506,-185.56379,1165.0347)"
     style="font-style:normal;font-variant:normal;font-weight:bold;font-stretch:normal;font-size:34.66666794px;line-height:1.33333337px;font-family:Montserrat;-inkscape-font-specification:'Montserrat Bold';letter-spacing:0px;word-spacing:0px;fill:#ffffff;fill-opacity:1;stroke:none"
     id="g1675">
    <path
       style="font-style:normal;font-variant:normal;font-weight:800;font-stretch:normal;font-family:Montserrat;-inkscape-font-specification:'Montserrat Ultra-Bold';fill:#ffffff;fill-opacity:1"
       d="m -1594.7402,493.48047 -1.4864,24.2207 6.8496,0.42188 1.4883,-24.22266 z m -17.7207,0.52344 -6.8418,0.56054 1.9863,24.18555 18.3809,-1.50781 -0.4454,-5.42578 -11.541,0.94726 z m 41.75,2.41797 c -1.1758,0.01 -2.3212,0.1661 -3.4336,0.46874 -2.1972,0.58792 -4.0727,1.68663 -5.627,3.29883 -1.5542,1.6122 -2.6014,3.60125 -3.1426,5.9668 -0.5412,2.36555 -0.4623,4.61261 0.2364,6.74023 0.6986,2.12762 1.9072,3.9439 3.625,5.45118 1.7454,1.4899 3.8577,2.51897 6.3359,3.08593 2.1628,0.49481 4.1974,0.55857 6.1074,0.18946 1.91,-0.36912 3.6052,-1.14328 5.084,-2.32227 l -3.3769,-4.82617 c -1.9547,1.49689 -4.0237,1.9941 -6.209,1.49414 -1.2842,-0.29379 -2.369,-0.83765 -3.2539,-1.63281 -0.8625,-0.79002 -1.4598,-1.75578 -1.791,-2.89844 -0.3036,-1.16003 -0.3022,-2.40516 0,-3.73438 0.3041,-1.32921 0.8407,-2.43997 1.6133,-3.33007 0.8003,-0.90748 1.7607,-1.52879 2.8808,-1.86524 1.1427,-0.33126 2.3565,-0.35043 3.6407,-0.0566 2.1853,0.49996 3.832,1.84901 4.9414,4.04688 l 5.1406,-2.87891 c -0.8191,-1.70473 -2.0089,-3.13792 -3.5684,-4.30078 -1.5595,-1.16286 -3.4212,-1.99152 -5.5839,-2.48633 -1.2391,-0.28348 -2.4454,-0.41974 -3.6211,-0.41015 z m -62.4922,1.61523 c -1.4301,-0.046 -3.0743,0.2066 -4.9297,0.75781 l -11.8965,3.5332 6.9121,23.26368 12.5606,-3.73242 c 3.1015,-0.92144 5.3068,-2.18064 6.6171,-3.7754 1.3104,-1.59475 1.6642,-3.41104 1.0586,-5.44921 -0.4146,-1.39572 -1.1446,-2.46775 -2.1875,-3.21875 -1.0494,-0.77316 -2.3079,-1.1953 -3.7754,-1.26563 0.8456,-0.80572 1.4067,-1.72021 1.6817,-2.74219 0.2906,-1.0507 0.2705,-2.12862 -0.059,-3.23632 -0.5529,-1.86095 -1.7654,-3.10564 -3.6387,-3.73047 -0.7049,-0.24262 -1.4857,-0.37669 -2.3437,-0.4043 z m 84.4414,4.62109 -10.7266,21.76758 6.1582,3.03516 4.1836,-8.49024 8.3945,4.13672 -4.1816,8.49024 6.1563,3.0332 10.7265,-21.76758 -6.1582,-3.0332 -4.0293,8.17773 -8.3965,-4.13672 4.0293,-8.17773 z m -87.3281,0.85157 c 1.3288,-0.0919 2.1595,0.41995 2.4902,1.5332 0.4475,1.50648 -0.4369,2.58793 -2.6524,3.24609 l -4.5195,1.34375 -1.332,-4.48633 4.5195,-1.34375 c 0.5539,-0.16454 1.0512,-0.26233 1.4942,-0.29296 z m -22.0762,2.66211 -6.166,3.01953 10.6679,21.79492 6.1661,-3.01758 z m 25.8203,6.07226 c 1.3836,-0.0901 2.2511,0.45506 2.6016,1.63477 0.4673,1.57294 -0.4519,2.70222 -2.7559,3.38671 l -5.5156,1.63868 -1.4024,-4.71875 5.5157,-1.63867 c 0.576,-0.17113 1.0954,-0.2727 1.5566,-0.30274 z m -39.1133,0.57227 -15.623,10.86914 13.8593,19.91992 15.9922,-11.125 -3.0293,-4.35547 -10.414,7.24609 -2.5352,-3.64257 8.8496,-6.15625 -2.9297,-4.21094 -8.8496,6.15625 -2.3359,-3.35742 10.0449,-6.98828 z m 151.9629,5.80468 -15.2422,18.88282 15.1602,12.23632 3.332,-4.12695 -9.873,-7.96875 2.7871,-3.45312 8.3886,6.77148 3.2227,-3.99219 -8.3887,-6.77148 2.5684,-3.1836 9.5234,7.68555 3.3321,-4.12695 z m -175.4824,10.29883 -4.1406,5.07617 8.8945,13.83203 -15.2051,-6.09374 -3.9883,4.88867 8.7637,13.76953 -15.0957,-6.00586 -4.4707,5.47851 23.7773,9.24219 4.6465,-5.69531 -8.3769,-13.0957 14.3808,5.73437 4.6446,-5.69531 z m 197.0605,8.3418 -18.9043,15.21289 4.3028,5.34766 5.0234,-4.04297 2.3477,2.91797 -2.2637,7.47265 4.6074,5.72461 2.6602,-8.85937 c 1.5324,0.72474 3.0549,0.99757 4.5703,0.8164 1.5479,-0.17764 3.0066,-0.81683 4.375,-1.91797 1.4224,-1.1446 2.3812,-2.47935 2.875,-4.0039 0.5117,-1.53904 0.54,-3.1635 0.084,-4.87305 -0.4381,-1.72403 -1.3463,-3.44181 -2.7227,-5.15234 z m 0.09,8.73828 2.3906,2.9707 c 0.8838,1.09835 1.3085,2.1229 1.2715,3.07227 -0.037,0.94937 -0.4966,1.77834 -1.3789,2.48828 -0.8823,0.70995 -1.7913,0.98144 -2.7266,0.81445 -0.9173,-0.18147 -1.8174,-0.82158 -2.7012,-1.91992 l -2.3906,-2.9707 z"
       transform="translate(924.89988,-375.1995)"
       id="path1673"
       inkscape:connector-curvature="0" />
  </g>
  <g
     inkscape:transform-center-y="-95.955033"
     inkscape:transform-center-x="-37.984845"
     aria-label="FÖRDERVEREIN"
     transform="rotate(24.134516,158.20944,1243.6531)"
     style="font-style:normal;font-variant:normal;font-weight:bold;font-stretch:normal;font-size:37.33333206px;line-height:1.33333337px;font-family:Montserrat;-inkscape-font-specification:'Montserrat Bold';letter-spacing:0px;word-spacing:0px;fill:#ffffff;fill-opacity:1;stroke:none"
     id="g1679">
    <path
       style="font-style:normal;font-variant:normal;font-weight:800;font-stretch:normal;font-family:Montserrat;-inkscape-font-specification:'Montserrat Ultra-Bold';fill:#ffffff"
       d="m -1586.1172,456.54688 6.8262,27.58398 7.1855,1.16797 15.2481,-23.99805 -7.2227,-1.17383 -9.8808,15.64258 -4.2696,-17.94141 z m -17.4824,0.0957 -11.9434,0.29883 0.6543,26.125 7.3887,-0.1836 -0.1719,-6.94336 4.0293,-0.0996 4.9141,6.82227 7.9121,-0.19727 -5.8418,-8.07031 c 1.6222,-0.83729 2.8515,-1.96376 3.6875,-3.37891 0.8602,-1.44063 1.268,-3.10512 1.2207,-4.99609 -0.049,-1.96561 -0.5653,-3.65869 -1.5469,-5.07812 -0.9822,-1.44432 -2.3542,-2.53009 -4.1152,-3.25782 -1.7616,-0.75257 -3.8238,-1.10015 -6.1875,-1.04101 z m -21.0859,1.39258 -20.0879,4.07617 5.1972,25.61133 20.5625,-4.17188 -1.1367,-5.59766 -13.3906,2.7168 -0.9512,-4.68359 11.3789,-2.3086 -1.0976,-5.41601 -11.3789,2.30859 -0.877,-4.3164 12.916,-2.6211 z m 20.7832,4.4414 c 1.5177,-0.038 2.6708,0.2694 3.4589,0.92188 0.7881,0.65248 1.198,1.58746 1.2286,2.80664 0.031,1.21917 -0.3315,2.17414 -1.086,2.86523 -0.7551,0.6662 -1.8924,1.01864 -3.4101,1.05664 l -4.1055,0.10352 -0.1914,-7.65039 z m 52.9433,0.8086 -8.6972,24.64453 19.7871,6.98242 1.9003,-5.38672 -12.8867,-4.54687 1.5918,-4.50586 10.9473,3.86328 1.8398,-5.21094 -10.9492,-3.86328 1.4649,-4.1543 12.4277,4.38477 1.9023,-5.38672 z m -109.1348,5.07226 c -2.1696,-0.004 -4.4138,0.46427 -6.7343,1.40625 l -11.4512,4.64844 9.8301,24.21484 11.4492,-4.64843 c 2.652,-1.07655 4.8032,-2.52677 6.4531,-4.35157 1.6499,-1.82478 2.6701,-3.87765 3.0606,-6.1582 0.3904,-2.28055 0.09,-4.6434 -0.9024,-7.08789 -0.9923,-2.4445 -2.4234,-4.3478 -4.2929,-5.71094 -1.8696,-1.36313 -4.0314,-2.12472 -6.4864,-2.2832 -0.3068,-0.0198 -0.6158,-0.0288 -0.9258,-0.0293 z m 136.8555,5.51563 -12.8496,22.75586 6.4356,3.63476 3.416,-6.04687 3.5097,1.98242 0.7149,8.3789 6.8906,3.89063 -0.8691,-9.92383 c 1.822,0.11426 3.4545,-0.22058 4.8984,-1.00586 1.4778,-0.79471 2.6812,-2.01505 3.6113,-3.66211 0.9669,-1.71208 1.395,-3.43029 1.2813,-5.15234 -0.1015,-1.74371 -0.7218,-3.37966 -1.8594,-4.9082 -1.1254,-1.55021 -2.7166,-2.90569 -4.7754,-4.06836 z m -138.6679,0.77343 c 0.9495,-0.043 1.8554,0.1022 2.7167,0.4375 1.7458,0.66126 3.0403,2.02995 3.8829,4.10547 0.8425,2.07552 0.8671,3.9594 0.076,5.65039 -0.7678,1.68164 -2.1881,2.94265 -4.2636,3.78516 l -4.3243,1.75586 -5.3925,-13.2832 4.3242,-1.75586 c 1.0377,-0.42126 2.0309,-0.65234 2.9805,-0.69532 z m 142.2421,7.93164 3.5762,2.01954 c 1.322,0.74656 2.1528,1.60186 2.4941,2.5664 0.3414,0.96454 0.213,1.97909 -0.3867,3.04102 -0.5997,1.06192 -1.402,1.69464 -2.4043,1.90039 -0.99,0.18407 -2.1448,-0.0972 -3.4668,-0.84375 l -3.5761,-2.01953 z m -169.2949,0.01 c -0.4522,0.0138 -0.9128,0.0591 -1.3828,0.13672 -1.8936,0.28947 -3.8295,1.08221 -5.8066,2.37891 l -9.9903,6.55273 14.3321,21.85156 6.1816,-4.05273 -3.8086,-5.80664 3.3711,-2.21094 7.7734,3.20508 6.6192,-4.33985 -9.2188,-3.77734 c 0.9368,-1.56685 1.3875,-3.17123 1.3516,-4.81445 -0.029,-1.67768 -0.5623,-3.30694 -1.5996,-4.88867 -1.0783,-1.64417 -2.4077,-2.81158 -3.9903,-3.5 -1.1971,-0.53193 -2.4752,-0.77593 -3.832,-0.73438 z m -1.7285,6.57813 c 0.2694,-0.026 0.5298,-0.021 0.7832,0.0137 1.0137,0.1388 1.8546,0.71653 2.5234,1.73633 0.6689,1.0198 0.8665,2.02274 0.5899,3.00781 -0.2903,0.96425 -1.0703,1.8627 -2.3399,2.69531 l -3.4355,2.25195 -4.1973,-6.39843 3.4356,-2.25391 c 0.9521,-0.62446 1.8323,-0.97469 2.6406,-1.05273 z m 195.0078,1.36914 -16.6035,20.17968 16.2012,13.33008 3.6289,-4.41015 -10.5508,-8.68165 3.0351,-3.68945 8.9668,7.37695 3.5098,-4.26757 -8.9648,-7.37696 2.7988,-3.40234 10.1758,8.37305 3.6308,-4.41016 z m -228.8086,7.48242 c -0.7743,-0.005 -1.4623,0.29019 -2.0644,0.88476 -0.6022,0.59457 -0.9149,1.28825 -0.9375,2.08008 0,0.77435 0.2981,1.47195 0.9101,2.0918 0.6121,0.62009 1.3058,0.93088 2.0801,0.93555 0.7746,-0.0303 1.4623,-0.34098 2.0645,-0.93555 0.6021,-0.59457 0.9151,-1.27071 0.9375,-2.02734 0.023,-0.79184 -0.2728,-1.49734 -0.8848,-2.11719 -0.6121,-0.61988 -1.3134,-0.92471 -2.1055,-0.91211 z m 10.4317,4.38867 c -1.1838,0.0321 -2.3752,0.2298 -3.5743,0.5918 -2.3804,0.70651 -4.5517,2.02961 -6.5175,3.9707 -1.9659,1.9411 -3.3278,4.10734 -4.0821,6.49609 -0.7366,2.37127 -0.8295,4.73782 -0.2812,7.09961 0.5659,2.34431 1.7575,4.43745 3.5762,6.2793 1.8186,1.84186 3.8974,3.06068 6.2343,3.65625 2.3547,0.57809 4.7212,0.51315 7.1016,-0.19336 2.3981,-0.724 4.581,-2.05695 6.5469,-3.99805 1.9658,-1.9411 3.3161,-4.09748 4.0527,-6.46875 0.7543,-2.38874 0.8491,-4.75529 0.2832,-7.09961 -0.5482,-2.36179 -1.7321,-4.46283 -3.5508,-6.30468 -1.8187,-1.84186 -3.9051,-3.05278 -6.2597,-3.63086 -1.1685,-0.29779 -2.3456,-0.43055 -3.5293,-0.39844 z m -16.0645,1.17187 c -0.7743,-0.005 -1.4623,0.2902 -2.0644,0.88477 -0.6022,0.59457 -0.9149,1.28825 -0.9375,2.08008 0,0.77434 0.3,1.47194 0.9121,2.0918 0.612,0.62009 1.3037,0.93283 2.0781,0.9375 0.7746,-0.0303 1.4643,-0.34294 2.0664,-0.9375 0.6021,-0.59458 0.9131,-1.27071 0.9355,-2.02735 0.023,-0.79183 -0.2707,-1.49733 -0.8828,-2.11719 -0.612,-0.61986 -1.3153,-0.92471 -2.1074,-0.91211 z m 15.2969,5.6875 c 0.6115,0.0171 1.228,0.11986 1.8515,0.3086 1.2297,0.35977 2.3609,1.06252 3.3926,2.10742 1.0318,1.04489 1.7282,2.19346 2.0899,3.44531 0.3441,1.23414 0.3536,2.44787 0.029,3.64258 -0.3244,1.19471 -0.9559,2.25676 -1.8946,3.18359 -0.9386,0.92683 -2.0063,1.54431 -3.205,1.85352 -1.1988,0.30917 -2.4129,0.2836 -3.6426,-0.0762 -1.2472,-0.37748 -2.3862,-1.08791 -3.418,-2.13281 -1.0318,-1.0449 -1.7203,-2.18579 -2.0644,-3.41993 -0.3617,-1.25185 -0.381,-2.47521 -0.057,-3.66992 0.3244,-1.19471 0.9559,-2.25481 1.8945,-3.18164 0.9387,-0.92683 2.0084,-1.54431 3.2071,-1.85351 0.5993,-0.15461 1.2049,-0.2241 1.8164,-0.20704 z m 240.4551,0.006 -19.0196,17.92383 5.0703,5.37891 19.0196,-17.92188 z m 11.2871,12.01172 -21.3887,15.01758 4.1621,5.92774 11.3965,-8.00196 -4.7676,17.44336 3.4961,4.98047 21.3887,-15.01758 -4.1621,-5.92773 -11.3965,8.00195 4.7676,-17.44336 z m -275.1875,1.68555 -11.6895,16.83594 21.4668,14.90429 4.2149,-6.07226 -7.3594,-5.10938 6.5801,-9.47656 -4.6934,-3.25781 -6.5781,9.47656 -4.7227,-3.2793 7.4727,-10.76367 z"
       transform="translate(1349.4003,-349.40016)"
       id="path1677"
       inkscape:connector-curvature="0" />
  </g>
</svg>
